<svg xmlns="http://www.w3.org/2000/svg" width="38.583" height="34.843" viewBox="0 0 38.583 34.843"><defs><style>.a{fill:#220c3d;}</style></defs><path class="a" d="M38.583,36.121V33.86h-5.4a3.391,3.391,0,0,1,0-6.782V24.817H12.178A5.649,5.649,0,0,0,7.66,33.86H5.652A5.65,5.65,0,0,0,2.265,44.033,5.65,5.65,0,0,0,5.652,54.206h4.733V59.66l4.709-2.327L19.8,59.66V54.206h18.78V51.946a3.391,3.391,0,0,1,0-6.782V42.9a3.391,3.391,0,0,1,0-6.782Zm-29.8-5.652a3.4,3.4,0,0,1,3.391-3.391h16.49a5.627,5.627,0,0,0-1.02,2.261H12.764V31.6H27.649a5.629,5.629,0,0,0,1.02,2.261H12.178A3.4,3.4,0,0,1,8.787,30.469Zm6.307,24.342-2.449,1.21V49.685h4.9v6.336ZM19.8,51.946V49.685H33.045a5.629,5.629,0,0,0,1.02,2.261Zm13.242-4.521H6.238v2.261h4.147v2.261H5.652a3.391,3.391,0,1,1,0-6.782H34.065a5.629,5.629,0,0,0-1.02,2.261ZM5.652,42.9a3.391,3.391,0,0,1,0-6.782H34.065a5.627,5.627,0,0,0-1.02,2.261H6.238v2.261H33.045a5.629,5.629,0,0,0,1.02,2.261Z" transform="translate(0 -24.817)"/></svg>