<svg xmlns="http://www.w3.org/2000/svg" width="51.81" height="31.743" viewBox="0 0 51.81 31.743"><defs><style>.a{fill:#220c3d;}</style></defs><path class="a" d="M142.8,228.395a3.456,3.456,0,1,0,3.456,3.456A3.46,3.46,0,0,0,142.8,228.395Zm0,5.832a2.376,2.376,0,1,1,2.376-2.376A2.379,2.379,0,0,1,142.8,234.227Z" transform="translate(-124.294 -213.76)"/><path class="a" d="M279.8,228.395a3.456,3.456,0,1,0,3.456,3.456A3.46,3.46,0,0,0,279.8,228.395Zm0,5.832a2.376,2.376,0,1,1,2.376-2.376A2.379,2.379,0,0,1,279.8,234.227Z" transform="translate(-246.497 -213.76)"/><path class="a" d="M84.916,147.7l1.2.94a.54.54,0,0,0,.666,0l1.2-.94a.54.54,0,0,0,.207-.425V145.4a.54.54,0,0,0-.54-.54h-2.4a.54.54,0,0,0-.54.54v1.877A.54.54,0,0,0,84.916,147.7Zm.873-1.762H87.11v1.074l-.66.517-.66-.517v-1.074Z" transform="translate(-75.56 -139.247)"/><path class="a" d="M87.984,202.908l-1.2-.94a.54.54,0,0,0-.666,0l-1.2.94a.54.54,0,0,0-.207.425v1.877a.54.54,0,0,0,.54.54h2.4a.54.54,0,0,0,.54-.54v-1.877A.54.54,0,0,0,87.984,202.908Zm-.873,1.762H85.79V203.6l.66-.517.66.517v1.074Z" transform="translate(-75.561 -190.085)"/><path class="a" d="M111.4,177.353l.94,1.2a.54.54,0,0,0,.425.207h1.877a.54.54,0,0,0,.54-.54v-2.4a.54.54,0,0,0-.54-.54h-1.877a.54.54,0,0,0-.425.207l-.94,1.2A.54.54,0,0,0,111.4,177.353Zm1.628-.993H114.1v1.321h-1.074l-.517-.66Z" transform="translate(-99.262 -166.382)"/><path class="a" d="M56.7,178.761a.541.541,0,0,0,.425-.207l.94-1.2a.54.54,0,0,0,0-.666l-.94-1.2a.54.54,0,0,0-.425-.207H54.828a.54.54,0,0,0-.54.54v2.4a.54.54,0,0,0,.54.54Zm-1.337-2.4h1.074l.517.66-.517.66H55.368Z" transform="translate(-48.425 -166.382)"/><path class="a" d="M51.679,116.863l-2.449-12.984A8.365,8.365,0,0,0,45.636,97.1L45.4,94.6a1.885,1.885,0,0,0-1.884-1.71h-5.3a1.885,1.885,0,0,0-1.883,1.71l-.207,2.137H15.685l-.207-2.137a1.885,1.885,0,0,0-1.884-1.71H8.3a1.885,1.885,0,0,0-1.883,1.71L6.172,97.1a8.365,8.365,0,0,0-3.595,6.783L.13,116.863a6.39,6.39,0,0,0,.894,4.815,6.681,6.681,0,0,0,3.568,2.638,6.935,6.935,0,0,0,2.084.323,6.279,6.279,0,0,0,5.847-3.869l2.335-5.169a5.88,5.88,0,0,0,9.477-3.8h3.138a5.88,5.88,0,0,0,9.478,3.8l2.335,5.169a6.279,6.279,0,0,0,5.847,3.869,6.938,6.938,0,0,0,2.083-.323,6.682,6.682,0,0,0,3.569-2.638,6.39,6.39,0,0,0,.9-4.815Zm-4.067-12.9a6.755,6.755,0,0,1-8.446,6.535,5.9,5.9,0,0,0-4.947-5.329,6.75,6.75,0,1,1,13.392-1.206Zm-28.381,1.18a8.35,8.35,0,0,0-2.074-6.784H34.65a8.35,8.35,0,0,0-2.074,6.784,5.9,5.9,0,0,0-5.1,5.03H24.335A5.9,5.9,0,0,0,19.232,105.146ZM38.214,94.515h5.3a.271.271,0,0,1,.271.246l.137,1.415a8.338,8.338,0,0,0-6.113,0l.137-1.414a.271.271,0,0,1,.271-.246Zm-30.189.246a.271.271,0,0,1,.271-.246h5.3a.271.271,0,0,1,.271.246L14,96.176a8.338,8.338,0,0,0-6.113,0Zm2.92,2.454a6.75,6.75,0,0,1,6.642,7.957,5.9,5.9,0,0,0-4.946,5.329,6.751,6.751,0,1,1-1.7-13.286Zm.1,22.887a4.762,4.762,0,0,1-5.968,2.668,4.761,4.761,0,0,1-3.357-5.607l1.771-9.394a8.371,8.371,0,0,0,9.242,4.375,5.857,5.857,0,0,0,.924,2.177L11.046,120.1Zm7.459-4.85a4.266,4.266,0,1,1,4.266-4.266A4.271,4.271,0,0,1,18.506,115.252Zm14.8,0a4.266,4.266,0,1,1,4.266-4.266A4.271,4.271,0,0,1,33.3,115.252Zm13.426,7.518a4.761,4.761,0,0,1-5.966-2.668L38.15,114.32a5.856,5.856,0,0,0,.924-2.176,8.371,8.371,0,0,0,9.242-4.376l1.772,9.395A4.762,4.762,0,0,1,46.729,122.77Z" transform="translate(0 -92.895)"/><path class="a" d="M361.355,151.507a2.057,2.057,0,1,0-2.057-2.057A2.059,2.059,0,0,0,361.355,151.507Zm0-3.033a.976.976,0,1,1-.976.976A.978.978,0,0,1,361.355,148.474Z" transform="translate(-320.492 -141.508)"/><path class="a" d="M361.355,205.313a2.057,2.057,0,1,0,2.057,2.057A2.059,2.059,0,0,0,361.355,205.313Zm0,3.033a.976.976,0,1,1,.976-.976A.978.978,0,0,1,361.355,208.346Z" transform="translate(-320.492 -193.171)"/><path class="a" d="M390.314,176.354a2.057,2.057,0,1,0,2.057,2.057A2.059,2.059,0,0,0,390.314,176.354Zm0,3.033a.976.976,0,1,1,.976-.976A.978.978,0,0,1,390.314,179.387Z" transform="translate(-346.324 -167.34)"/><path class="a" d="M334.452,178.411a2.057,2.057,0,1,0-2.057,2.057A2.059,2.059,0,0,0,334.452,178.411Zm-2.057.976a.976.976,0,1,1,.977-.976A.978.978,0,0,1,332.4,179.387Z" transform="translate(-294.66 -167.34)"/><path class="a" d="M202.3,191.4h-1.188a.54.54,0,1,0,0,1.08H202.3a.54.54,0,0,0,0-1.08Z" transform="translate(-178.904 -180.756)"/><path class="a" d="M258.661,192.475h1.188a.54.54,0,1,0,0-1.08h-1.188a.54.54,0,0,0,0,1.08Z" transform="translate(-230.242 -180.756)"/></svg>