<?xml version="1.0" encoding="UTF-8" standalone="no"?>
<svg
   xmlns:dc="http://purl.org/dc/elements/1.1/"
   xmlns:cc="http://creativecommons.org/ns#"
   xmlns:rdf="http://www.w3.org/1999/02/22-rdf-syntax-ns#"
   xmlns:svg="http://www.w3.org/2000/svg"
   xmlns="http://www.w3.org/2000/svg"
   xmlns:sodipodi="http://sodipodi.sourceforge.net/DTD/sodipodi-0.dtd"
   xmlns:inkscape="http://www.inkscape.org/namespaces/inkscape"
   width="350"
   height="234"
   viewBox="0 0 350 234"
   version="1.1"
   id="svg23"
   sodipodi:docname="icon1_.svg"
   inkscape:version="0.92.3 (2405546, 2018-03-11)">
  <metadata
     id="metadata29">
    <rdf:RDF>
      <cc:Work
         rdf:about="">
        <dc:format>image/svg+xml</dc:format>
        <dc:type
           rdf:resource="http://purl.org/dc/dcmitype/StillImage" />
        <dc:title></dc:title>
      </cc:Work>
    </rdf:RDF>
  </metadata>
  <defs
     id="defs27" />
  <sodipodi:namedview
     pagecolor="#ffffff"
     bordercolor="#666666"
     borderopacity="1"
     objecttolerance="10"
     gridtolerance="10"
     guidetolerance="10"
     inkscape:pageopacity="0"
     inkscape:pageshadow="2"
     inkscape:window-width="1920"
     inkscape:window-height="1015"
     id="namedview25"
     showgrid="false"
     inkscape:zoom="1.9657143"
     inkscape:cx="60.150569"
     inkscape:cy="173.15793"
     inkscape:window-x="0"
     inkscape:window-y="0"
     inkscape:window-maximized="1"
     inkscape:current-layer="svg23" />
  <g
     id="Group_378"
     data-name="Group 378"
     transform="translate(-83 -1164)">
    <rect
       id="Rectangle_742"
       data-name="Rectangle 742"
       width="350"
       height="234"
       transform="translate(83 1164)"
       fill="#fff" />
    <g
       id="Group_2"
       data-name="Group 2"
       transform="translate(123.108 1211.52)">
      <path
         id="Path_4"
         data-name="Path 4"
         d="M141.4,120.513a2.329,2.329,0,0,0-2.326,2.326V256.8a2.329,2.329,0,0,0,2.326,2.326H407a2.329,2.329,0,0,0,2.326-2.326V122.839A2.329,2.329,0,0,0,407,120.513Z"
         transform="translate(-139.07 -120.513)"
         fill="none"
         stroke="#707070"
         stroke-width="1" />
      <path
         id="Path_5"
         data-name="Path 5"
         d="M148.917,128.034a2.329,2.329,0,0,0-2.326,2.326V256.884a2.328,2.328,0,0,0,2.326,2.326H407.081a2.329,2.329,0,0,0,2.326-2.326V130.36a2.328,2.328,0,0,0-2.326-2.326Z"
         transform="translate(-142.87 -124.313)"
         fill="#fff" />
      <path
         id="Path_6"
         data-name="Path 6"
         d="M248.455,229.864H193.566a3.26,3.26,0,0,1-3.256-3.256V171.719a3.26,3.26,0,0,1,3.256-3.256h54.889a3.26,3.26,0,0,1,3.256,3.256v54.889A3.26,3.26,0,0,1,248.455,229.864Zm-54.889-60.471a2.329,2.329,0,0,0-2.326,2.326v54.889a2.329,2.329,0,0,0,2.326,2.326h54.889a2.329,2.329,0,0,0,2.326-2.326V171.719a2.329,2.329,0,0,0-2.326-2.326Z"
         transform="translate(-164.959 -144.739)"
         fill="#ebebeb" />
      <path
         id="Path_59"
         data-name="Path 59"
         d="M248.455,229.864H193.566a3.26,3.26,0,0,1-3.256-3.256V171.719a3.26,3.26,0,0,1,3.256-3.256h54.889a3.26,3.26,0,0,1,3.256,3.256v54.889A3.26,3.26,0,0,1,248.455,229.864Zm-54.889-60.471a2.329,2.329,0,0,0-2.326,2.326v54.889a2.329,2.329,0,0,0,2.326,2.326h54.889a2.329,2.329,0,0,0,2.326-2.326V171.719a2.329,2.329,0,0,0-2.326-2.326Z"
         transform="translate(-86.356 -144.739)"
         fill="#ebebeb" />
      <path
         id="Path_9"
         data-name="Path 9"
         d="M203.448,178.8a2.329,2.329,0,0,0-2.326,2.326v46.516a2.329,2.329,0,0,0,2.326,2.326h46.516a2.329,2.329,0,0,0,2.326-2.326V181.13a2.329,2.329,0,0,0-2.326-2.326Z"
         transform="translate(-170.422 -149.965)"
         fill="#ebebeb" />
      <path
         id="Path_58"
         data-name="Path 58"
         d="M203.448,178.8a2.329,2.329,0,0,0-2.326,2.326v46.516a2.329,2.329,0,0,0,2.326,2.326h46.516a2.329,2.329,0,0,0,2.326-2.326V181.13a2.329,2.329,0,0,0-2.326-2.326Z"
         transform="translate(-91.819 -149.965)"
         fill="#ebebeb" />
      <path
         id="Path_10"
         data-name="Path 10"
         d="M522.172,178.8a2.329,2.329,0,0,0-2.326,2.326v46.516a2.328,2.328,0,0,0,2.326,2.326h46.516a2.328,2.328,0,0,0,2.326-2.326V181.13a2.328,2.328,0,0,0-2.326-2.326Z"
         transform="translate(-331.457 -149.965)"
         fill="#ffd500"
         style="fill:#43e8d8;fill-opacity:1" />
      <path
         id="Path_11"
         data-name="Path 11"
         d="M568.119,229.864H513.23a3.26,3.26,0,0,1-3.256-3.256V171.719a3.26,3.26,0,0,1,3.256-3.256h54.889a3.26,3.26,0,0,1,3.256,3.256v54.889A3.26,3.26,0,0,1,568.119,229.864ZM513.23,169.393a2.328,2.328,0,0,0-2.326,2.326v54.889a2.328,2.328,0,0,0,2.326,2.326h54.889a2.329,2.329,0,0,0,2.326-2.326V171.719a2.328,2.328,0,0,0-2.326-2.326Z"
         transform="translate(-326.469 -144.739)"
         fill="#ffd500"
         style="fill:#43e8d8;fill-opacity:1" />
      <circle
         id="Ellipse_13"
         data-name="Ellipse 13"
         cx="7.908"
         cy="7.908"
         r="7.908"
         transform="translate(105.126 94.893)"
         fill="#e6e6e6"
         opacity="0.8" />
      <circle
         id="Ellipse_14"
         data-name="Ellipse 14"
         cx="7.908"
         cy="7.908"
         r="7.908"
         transform="translate(149.781 94.893)"
         fill="#e6e6e6"
         opacity="0.4" />
      <circle
         id="Ellipse_15"
         data-name="Ellipse 15"
         cx="7.908"
         cy="7.908"
         r="7.908"
         transform="translate(127.454 94.893)"
         fill="#e6e6e6"
         opacity="0.6" />
      <circle
         id="Ellipse_16"
         data-name="Ellipse 16"
         cx="7.908"
         cy="7.908"
         r="7.908"
         transform="translate(26.049 94.893)"
         fill="#ebebeb"
         opacity="0.8" />
      <circle
         id="Ellipse_17"
         data-name="Ellipse 17"
         cx="7.908"
         cy="7.908"
         r="7.908"
         transform="translate(70.704 94.893)"
         fill="#efefef"
         opacity="0.4" />
      <circle
         id="Ellipse_18"
         data-name="Ellipse 18"
         cx="7.908"
         cy="7.908"
         r="7.908"
         transform="translate(48.377 94.893)"
         fill="#ebebeb"
         opacity="0.6" />
      <circle
         id="Ellipse_19"
         data-name="Ellipse 19"
         cx="7.908"
         cy="7.908"
         r="7.908"
         transform="translate(184.203 94.893)"
         fill="#ffd500"
         opacity="0.8"
         style="fill:#43e8d8;fill-opacity:1" />
      <circle
         id="Ellipse_20"
         data-name="Ellipse 20"
         cx="7.908"
         cy="7.908"
         r="7.908"
         transform="translate(228.859 94.893)"
         fill="#ffd500"
         opacity="0.4"
         style="fill:#43e8d8;fill-opacity:1" />
      <circle
         id="Ellipse_21"
         data-name="Ellipse 21"
         cx="7.908"
         cy="7.908"
         r="7.908"
         transform="translate(206.531 94.893)"
         fill="#ffd500"
         opacity="0.6"
         style="fill:#43e8d8;fill-opacity:1" />
      <path
         id="Path_12"
         data-name="Path 12"
         d="M411.519,108.262,400.367,93.923l6.485-5.044,5.281,6.789,17.838-18.83,5.965,5.651Z"
         transform="translate(-202.285 -38.822)"
         fill="#fff" />
    </g>
  </g>
</svg>
