<svg xmlns="http://www.w3.org/2000/svg" width="229.398" height="453" viewBox="0 0 229.398 453">
  <g id="Group_382" data-name="Group 382" transform="translate(-141.111 -1934)">
    <g id="Group_6" data-name="Group 6" transform="translate(141.111 1962.419)">
      <path id="Path_46" data-name="Path 46" d="M524.818,180.088h-2.333V116.18A36.988,36.988,0,0,0,485.5,79.191H350.1a36.988,36.988,0,0,0-36.988,36.988v350.6A36.988,36.988,0,0,0,350.1,503.772H485.5a36.988,36.988,0,0,0,36.988-36.988V225.579h2.333Z" transform="translate(-313.111 -79.191)" fill="#767680"/>
      <path id="Path_47" data-name="Path 47" d="M494.278,95.686H476.6a13.123,13.123,0,0,1-12.15,18.08H386.886a13.123,13.123,0,0,1-12.15-18.08H358.228a27.622,27.622,0,0,0-27.622,27.622V473.4a27.622,27.622,0,0,0,27.622,27.622h136.05A27.622,27.622,0,0,0,521.9,473.4V123.309a27.622,27.622,0,0,0-27.622-27.622Z" transform="translate(-320.399 -86.063)" fill="#fff"/>
      <rect id="Rectangle_37" data-name="Rectangle 37" width="48.223" height="4.478" transform="translate(76.545 103.672)" fill="#4b0c82"/>
      <rect id="Rectangle_38" data-name="Rectangle 38" width="84.049" height="4.478" transform="translate(76.545 119.163)" fill="#e6e6e6"/>
      <rect id="Rectangle_39" data-name="Rectangle 39" width="83.967" height="4.478" transform="translate(76.545 134.655)" fill="#e6e6e6"/>
      <rect id="Rectangle_40" data-name="Rectangle 40" width="35.826" height="35.826" transform="translate(30.726 103.738)" fill="#4b0c82"/>
      <path id="Path_64" data-name="Path 64" d="M0,0H48.223V4.478H0Z" transform="translate(76.545 197.714)" fill="#6c17b9"/>
      <rect id="Rectangle_42" data-name="Rectangle 42" width="84.049" height="4.478" transform="translate(76.545 213.206)" fill="#e6e6e6"/>
      <rect id="Rectangle_43" data-name="Rectangle 43" width="83.967" height="4.478" transform="translate(76.545 228.697)" fill="#e6e6e6"/>
      <path id="Path_62" data-name="Path 62" d="M0,0H35.826V35.826H0Z" transform="translate(30.726 197.781)" fill="#6c17b9"/>
      <rect id="Rectangle_45" data-name="Rectangle 45" width="48.223" height="4.478" transform="translate(76.545 291.757)" fill="#9a3cef"/>
      <rect id="Rectangle_46" data-name="Rectangle 46" width="84.049" height="4.478" transform="translate(76.545 307.249)" fill="#e6e6e6"/>
      <rect id="Rectangle_47" data-name="Rectangle 47" width="83.967" height="4.478" transform="translate(76.545 322.74)" fill="#e6e6e6"/>
      <path id="Path_63" data-name="Path 63" d="M0,0H35.826V35.826H0Z" transform="translate(30.726 291.823)" fill="#9a3cef"/>
    </g>
    <g id="Group_7" data-name="Group 7" transform="translate(268.769 1934)">
      <path id="Path_61" data-name="Path 61" d="M50.87,0A50.87,50.87,0,1,1,0,50.87,50.87,50.87,0,0,1,50.87,0Z" transform="translate(0 0)" fill="#ffd500"/>
      <path id="Path_55" data-name="Path 55" d="M919.414,268.941H877.265a2.91,2.91,0,0,1-2.907-2.907V240.6a2.91,2.91,0,0,1,2.907-2.907h42.149a2.91,2.91,0,0,1,2.907,2.907v25.435a2.91,2.91,0,0,1-2.907,2.907ZM877.265,240.6v25.435h42.152l0-25.435Z" transform="translate(-847.469 -195.906)" fill="#fff"/>
      <path id="Path_56" data-name="Path 56" d="M917.1,228.483H890.938V216.855c0-8.422,5.5-14.534,13.081-14.534s13.081,6.113,13.081,14.534Zm-23.255-2.907h20.348v-8.721c0-6.846-4.184-11.627-10.174-11.627s-10.174,4.781-10.174,11.627Z" transform="translate(-853.149 -183.79)" fill="#fff"/>
      <circle id="Ellipse_29" data-name="Ellipse 29" cx="2.907" cy="2.907" r="2.907" transform="translate(47.963 53.777)" fill="#fff"/>
    </g>
  </g>
</svg>
