<?xml version="1.0" encoding="utf-8"?>
<!-- Generator: Adobe Illustrator 16.0.0, SVG Export Plug-In . SVG Version: 6.00 Build 0)  -->
<!DOCTYPE svg PUBLIC "-//W3C//DTD SVG 1.1//EN" "http://www.w3.org/Graphics/SVG/1.1/DTD/svg11.dtd">
<svg version="1.1" id="Layer_1" xmlns="http://www.w3.org/2000/svg" xmlns:xlink="http://www.w3.org/1999/xlink" x="0px" y="0px"
	 width="2342.926px" height="960px" viewBox="0 0 2342.926 960" enable-background="new 0 0 2342.926 960" xml:space="preserve">
<g>
	<path fill="#43E8D8" d="M919.3,349.654c0.103,1.796-0.005,3.609,0.453,5.377c-0.04,0.353-0.129,0.708-0.112,1.058
		c0.471,10.301,0.479,20.602,0.001,30.903c-0.017,0.35,0.072,0.706,0.111,1.059c-0.449,1.768-0.35,3.578-0.453,5.374
		c-0.125,0.917-0.312,1.832-0.085,2.76c-0.375,1.22-0.5,2.459-0.293,3.727c-0.407,0.704-0.409,1.452-0.243,2.218
		c-0.366,1.036-0.507,2.094-0.317,3.185c-0.372,0.52-0.398,1.086-0.229,1.678c-0.366,0.853-0.478,1.732-0.275,2.646
		c-0.374,0.516-0.417,1.082-0.257,1.679c-0.364,0.85-0.529,1.725-0.332,2.646c-0.301,0.34-0.334,0.726-0.194,1.142
		c-0.376,0.847-0.524,1.723-0.341,2.641c-0.303,0.335-0.346,0.72-0.214,1.138c-0.362,0.663-0.513,1.356-0.31,2.104
		c-0.306,0.333-0.354,0.718-0.229,1.139c-0.367,0.663-0.493,1.359-0.311,2.104c-0.312,0.332-0.365,0.716-0.23,1.139
		c-0.367,0.659-0.528,1.353-0.355,2.103c-0.312,0.325-0.366,0.705-0.24,1.123c-0.332,0.483-0.484,0.999-0.28,1.578
		c-0.312,0.326-0.37,0.707-0.244,1.128c-0.338,0.48-0.474,0.998-0.28,1.574c-0.322,0.318-0.385,0.701-0.268,1.125
		c-0.549,1.185-0.851,2.421-0.774,3.734c-0.33,0.318-0.401,0.703-0.288,1.133c-0.198,0.592-0.447,1.171-0.588,1.774
		c-3.281,14.046-7.541,27.788-12.773,41.229c-0.226,0.578-0.587,1.123-0.507,1.791c-0.405,0.32-0.554,0.74-0.481,1.246
		c-1.686,2.93-2.717,6.15-4.102,9.217c-1.018,2.252-2.285,4.406-2.917,6.824c-0.644,0.645-1.012,1.418-1.094,2.326
		c-1.443,2.137-2.542,4.447-3.442,6.857c-0.861,1.098-1.549,2.285-1.885,3.654c-1.109,1.322-1.854,2.842-2.441,4.451
		c-0.49,0.375-0.801,0.848-0.803,1.488c-0.955,0.945-1.497,2.127-1.926,3.373c-0.075,0.146-0.15,0.293-0.226,0.438
		c-0.744,0.582-1.161,1.361-1.375,2.266c-0.08,0.152-0.159,0.305-0.239,0.457c-0.757,0.564-1.143,1.355-1.364,2.244
		c-0.083,0.158-0.167,0.316-0.25,0.475c-0.755,0.561-1.171,1.334-1.403,2.227c-0.08,0.139-0.158,0.279-0.237,0.42
		c-0.519,0.232-0.738,0.66-0.785,1.201c-0.09,0.164-0.181,0.33-0.271,0.494c-0.758,0.553-1.186,1.318-1.424,2.207l-0.234,0.127
		l0.004,0.268c-0.521,0.244-0.777,0.666-0.829,1.227c-0.082,0.137-0.164,0.275-0.245,0.412c-0.521,0.234-0.771,0.654-0.823,1.209
		c-0.085,0.143-0.169,0.285-0.253,0.428c-0.523,0.225-0.769,0.643-0.818,1.193c-0.086,0.145-0.174,0.289-0.259,0.436
		c-0.521,0.225-0.776,0.635-0.835,1.186c-0.084,0.135-0.17,0.271-0.254,0.408c-0.525,0.234-0.804,0.646-0.863,1.211l-0.231,0.109
		v0.256c-0.667,0.428-1.09,1.025-1.267,1.799c-0.104,0.166-0.207,0.33-0.311,0.494c-0.523,0.193-0.758,0.596-0.823,1.125
		c-0.093,0.145-0.188,0.287-0.279,0.432c-0.542,0.227-0.835,0.637-0.903,1.215c-0.441,0.188-0.689,0.508-0.701,0.994
		c-0.525,0.201-0.793,0.596-0.859,1.143l-0.242,0.111l-0.015,0.266c-0.684,0.416-1.118,1.02-1.335,1.787
		c-0.092,0.135-0.185,0.27-0.274,0.404c-0.707,0.408-1.157,1.014-1.395,1.787c-0.444,0.184-0.713,0.5-0.741,0.994
		c-0.539,0.201-0.828,0.602-0.907,1.162c-0.442,0.172-0.697,0.482-0.726,0.965c-0.705,0.391-1.165,0.979-1.408,1.742
		c-0.446,0.166-0.716,0.475-0.752,0.963c-0.71,0.385-1.183,0.963-1.416,1.736c-0.44,0.166-0.711,0.467-0.751,0.949
		c-0.878,0.568-1.523,1.33-1.933,2.297c-0.645,0.338-1.097,0.838-1.285,1.555c-0.717,0.357-1.19,0.926-1.445,1.682
		c-0.816,0.51-1.436,1.191-1.801,2.09c-0.906,0.525-1.572,1.27-1.998,2.229c-1.346,1.053-2.478,2.299-3.396,3.74
		c-1.267,0.869-2.291,1.965-3.073,3.287c-3.78,3.504-7.434,7.135-10.932,10.92c-1.522,0.953-2.805,2.162-3.868,3.605
		c-1.079,0.551-1.942,1.344-2.616,2.348c-1.143,0.604-2.078,1.438-2.797,2.514c-0.709,0.195-1.192,0.656-1.521,1.297
		c-0.955,0.414-1.728,1.041-2.264,1.943c-0.71,0.178-1.202,0.621-1.523,1.266c-0.762,0.252-1.338,0.723-1.711,1.438
		c-0.495,0.043-0.805,0.324-0.983,0.771c-0.754,0.236-1.334,0.688-1.701,1.396c-0.51,0.053-0.831,0.352-1.032,0.803
		c-0.744,0.221-1.303,0.672-1.674,1.355c-0.494,0.039-0.81,0.312-1,0.754c-0.832,0.26-1.486,0.752-1.953,1.49l-0.174-0.029
		l-0.023,0.174c-0.762,0.234-1.36,0.676-1.75,1.383c-0.15,0.102-0.301,0.207-0.45,0.309c-0.748,0.209-1.335,0.627-1.729,1.307
		c-0.144,0.094-0.288,0.189-0.433,0.287c-0.765,0.207-1.359,0.643-1.773,1.318c-0.13,0.088-0.26,0.176-0.39,0.264
		c-0.539,0.066-0.939,0.32-1.136,0.85c-0.161,0.107-0.322,0.215-0.483,0.322c-0.76,0.186-1.354,0.604-1.773,1.268l-0.269,0.008
		l-0.121,0.24c-0.552,0.062-0.962,0.324-1.187,0.846c-0.146,0.092-0.29,0.182-0.435,0.271c-0.536,0.059-0.941,0.301-1.148,0.822
		c-0.157,0.098-0.313,0.195-0.47,0.293c-1.079,0.385-2.01,0.988-2.748,1.875c-0.166,0.096-0.331,0.193-0.497,0.289
		c-0.525,0.051-0.934,0.271-1.138,0.787c-0.16,0.096-0.322,0.189-0.483,0.285c-0.529,0.053-0.939,0.275-1.148,0.791
		c-0.158,0.094-0.313,0.186-0.472,0.275c-0.613,0.064-1.096,0.332-1.383,0.896l-0.165-0.047l-0.04,0.168
		c-0.901,0.229-1.674,0.658-2.238,1.416c-0.166,0.092-0.332,0.184-0.498,0.273c-0.537,0.051-0.962,0.271-1.195,0.785
		c-0.142,0.08-0.282,0.16-0.425,0.24c-0.895,0.23-1.681,0.637-2.257,1.387c-0.148,0.08-0.297,0.158-0.445,0.236
		c-0.976,0.25-1.817,0.723-2.49,1.482l-0.143-0.049l-0.04,0.146c-1.336,0.441-2.528,1.133-3.581,2.066l-0.154-0.055
		c0,0-0.047,0.158-0.047,0.156c-1.698,0.605-3.261,1.457-4.662,2.6l-0.168-0.062l-0.059,0.17c-0.405-0.105-0.662,0.061-0.806,0.438
		l-0.183-0.061c0,0-0.063,0.182-0.063,0.18c-0.853,0.045-1.49,0.596-2.194,0.965c-33.862,17.736-69.788,28.791-107.793,32.811
		c-56.241,5.947-110.116-2.799-161.479-26.619c-0.802-0.369-1.532-0.963-2.487-0.941c-0.199-0.277-0.468-0.41-0.808-0.4
		c-0.157-0.371-0.422-0.525-0.82-0.414l-0.078-0.178l-0.184,0.062c-0.154-0.371-0.421-0.527-0.819-0.418l-0.077-0.178l-0.184,0.062
		c-1.569-1.172-3.344-1.941-5.17-2.604l-0.056-0.168c0,0-0.165,0.062-0.164,0.062c-0.155-0.377-0.422-0.547-0.834-0.443
		l-0.056-0.162c0,0-0.16,0.061-0.159,0.061c-1.757-1.334-3.725-2.277-5.76-3.096l-0.087-0.199c0,0-0.217-0.002-0.219-0.002
		l0.017-0.031l0.102,0.01c-0.362-0.158-0.724-0.316-1.086-0.473c-1.045-0.943-2.25-1.604-3.588-2.025l-0.052-0.176l-0.175,0.057
		c-0.673-0.75-1.517-1.211-2.479-1.471l-0.07-0.189l-0.196,0.045c-1.009-0.961-2.189-1.639-3.503-2.088l-0.033-0.135l-0.131,0.043
		c-0.322-0.574-0.829-0.854-1.471-0.92l-0.06-0.188l-0.192,0.045c-0.649-0.771-1.474-1.266-2.438-1.535l-0.033-0.145l-0.14,0.043
		c-0.319-0.57-0.818-0.859-1.459-0.926l-0.053-0.186l-0.188,0.045c-0.273-0.561-0.742-0.824-1.342-0.887
		c-0.164-0.096-0.329-0.191-0.493-0.287c-1.267-1.262-2.763-2.18-4.371-2.93c-0.167-0.104-0.334-0.207-0.501-0.311
		c-0.195-0.514-0.593-0.748-1.119-0.805c-0.155-0.096-0.311-0.191-0.466-0.287c-0.208-0.523-0.612-0.775-1.156-0.836
		c-0.138-0.086-0.274-0.176-0.412-0.262c-0.237-0.541-0.665-0.812-1.239-0.875l-0.022-0.139l-0.135,0.035
		c-0.488-0.709-1.144-1.184-1.976-1.41c-0.151-0.1-0.305-0.199-0.455-0.299c-0.217-0.535-0.625-0.814-1.187-0.887
		c-0.196-0.439-0.519-0.701-1.013-0.721c-0.192-0.525-0.587-0.783-1.126-0.848c-0.13-0.09-0.261-0.178-0.392-0.268
		c-0.416-0.699-1.029-1.139-1.799-1.375c-0.193-0.445-0.515-0.719-1.016-0.75c-0.195-0.533-0.589-0.816-1.143-0.896
		c-0.371-0.643-0.902-1.072-1.633-1.24c-0.155-0.52-0.527-0.766-1.043-0.836c-0.208-0.453-0.534-0.752-1.049-0.807
		c-0.354-0.693-0.914-1.139-1.654-1.363c-0.393-0.645-0.92-1.119-1.667-1.314c-0.167-0.52-0.53-0.805-1.064-0.887
		c-0.352-0.641-0.858-1.094-1.573-1.293c-0.355-0.707-0.915-1.178-1.667-1.424c-0.532-0.822-1.232-1.445-2.152-1.805
		c-0.342-0.709-0.888-1.189-1.628-1.453c-0.887-1.174-1.947-2.154-3.241-2.867c-0.506-0.898-1.239-1.551-2.163-1.996
		c-2.36-2.57-4.867-4.986-7.582-7.182c-0.837-1.295-1.903-2.361-3.197-3.199c-2.385-2.883-4.945-5.598-7.706-8.121
		c-0.272-0.74-0.757-1.285-1.479-1.615c-0.715-1.295-1.687-2.361-2.868-3.244c-0.266-0.736-0.742-1.287-1.449-1.633
		c-0.363-0.916-0.992-1.609-1.809-2.146c-0.246-0.75-0.716-1.311-1.425-1.664c-0.199-0.715-0.653-1.223-1.294-1.574
		c-0.242-0.75-0.691-1.326-1.398-1.689c-0.173-0.713-0.604-1.221-1.241-1.562c-0.089-0.555-0.386-0.941-0.925-1.129
		c-0.057-0.518-0.354-0.85-0.812-1.059c-0.222-0.736-0.656-1.305-1.34-1.674c-0.028-0.494-0.296-0.809-0.738-0.996
		c-0.079-0.549-0.354-0.945-0.893-1.139c-0.03-0.504-0.308-0.824-0.755-1.02c-0.082-0.535-0.346-0.93-0.875-1.111
		c-0.035-0.521-0.323-0.861-0.774-1.086c-0.07-0.525-0.31-0.926-0.837-1.107c-0.018-0.496-0.281-0.82-0.72-1.02
		c-0.071-0.562-0.353-0.969-0.884-1.188c-0.103-0.154-0.203-0.311-0.305-0.467c-0.061-0.514-0.293-0.896-0.806-1.07
		c-0.022-0.518-0.3-0.861-0.744-1.092c-0.062-0.549-0.315-0.959-0.842-1.172c-0.093-0.148-0.187-0.299-0.278-0.449
		c-0.061-0.529-0.295-0.936-0.816-1.133c-0.099-0.164-0.197-0.326-0.298-0.486c-0.056-0.52-0.278-0.916-0.795-1.102
		c-0.112-0.172-0.226-0.346-0.339-0.52c-0.023-0.518-0.243-0.898-0.746-1.086c-0.109-0.18-0.22-0.355-0.331-0.535
		c-0.024-0.52-0.239-0.908-0.746-1.102c-0.106-0.174-0.213-0.346-0.32-0.52c-0.034-0.52-0.24-0.922-0.755-1.115
		c-0.104-0.168-0.205-0.338-0.308-0.506c-0.044-0.521-0.255-0.928-0.77-1.125c-0.093-0.166-0.188-0.332-0.281-0.496
		c-0.044-0.537-0.264-0.959-0.779-1.186c-0.048-0.664-0.388-1.15-0.924-1.516c-0.008-0.521-0.214-0.918-0.719-1.123
		c-0.092-0.166-0.184-0.332-0.275-0.5c-0.048-0.535-0.261-0.967-0.776-1.201c-0.04-0.646-0.375-1.123-0.879-1.498
		c-0.03-0.535-0.232-0.963-0.744-1.199c-0.022-0.648-0.353-1.123-0.854-1.502c-0.041-0.541-0.244-0.979-0.759-1.227
		c-0.017-0.635-0.341-1.1-0.824-1.475c-0.417-1.23-0.944-2.398-1.901-3.32c-0.002-0.658-0.33-1.145-0.821-1.543
		c-0.591-1.59-1.31-3.111-2.413-4.42c-1.938-4.387-4.083-8.67-6.404-12.869c-0.438-1.691-1.14-3.264-2.17-4.68
		c0.047-0.521-0.097-0.959-0.546-1.264c-0.054-0.965-0.429-1.787-1.093-2.482c0.038-0.531-0.104-0.986-0.568-1.299
		c-0.04-0.963-0.396-1.793-1.048-2.496c0.056-0.521-0.076-0.967-0.519-1.285c0.064-0.568-0.086-1.047-0.57-1.389
		c0.045-0.531-0.084-0.988-0.539-1.314c0.075-0.557-0.066-1.027-0.547-1.361c0.053-0.529-0.065-0.998-0.508-1.338
		c-0.602-2.551-1.567-4.964-2.74-7.301c0.074-0.526-0.043-0.988-0.465-1.344c-1.559-5.441-3.348-10.81-5.187-16.16
		c0.083-0.445-0.028-0.828-0.371-1.134c0.091-0.971-0.218-1.834-0.709-2.649c0.096-0.438-0.003-0.819-0.339-1.131
		c0.17-0.396,0.069-0.731-0.234-1.02c0.093-0.443-0.022-0.825-0.345-1.146c-0.528-3.282-1.345-6.496-2.354-9.661
		c0.104-0.434,0.026-0.818-0.297-1.141c0.076-1.312-0.256-2.538-0.78-3.724c0.108-0.432,0.032-0.815-0.289-1.138
		c0.175-0.567,0.062-1.081-0.281-1.554c0.119-0.432,0.05-0.818-0.265-1.148c0.185-0.564,0.085-1.082-0.259-1.559
		c0.118-0.427,0.06-0.814-0.259-1.143c0.185-0.567,0.075-1.086-0.26-1.565c0.13-0.61,0.038-1.173-0.343-1.678
		c0.188-0.559,0.102-1.074-0.232-1.554c0.132-0.422,0.075-0.808-0.229-1.145c0.19-0.742,0.053-1.438-0.305-2.1
		c0.13-0.423,0.07-0.808-0.234-1.143c0.185-0.74,0.062-1.438-0.292-2.104c0.148-0.601,0.099-1.166-0.276-1.681
		c0.203-0.737,0.098-1.436-0.258-2.104c0.155-0.599,0.109-1.164-0.271-1.676c0.18-0.911,0.066-1.787-0.305-2.636
		c0.161-0.596,0.125-1.165-0.233-1.688c0.209-0.913,0.089-1.792-0.27-2.646c0.163-0.771,0.117-1.518-0.286-2.217
		c0.196-1.084,0.11-2.146-0.254-3.187c0.16-0.945,0.149-1.872-0.283-2.758c0.179-1.438,0.092-2.858-0.273-4.262
		c0.322-1.465-0.133-2.923-0.039-4.386c-0.611-9.112-0.546-18.231-0.303-27.354c0.045-1.688,0.329-3.379,0.014-5.068
		c0.445-1.62,0.505-3.267,0.325-4.927c0.36-1.223,0.427-2.464,0.235-3.722c0.435-1.065,0.504-2.168,0.33-3.295
		c0.35-0.861,0.413-1.744,0.203-2.647c0.412-0.882,0.499-1.804,0.34-2.755c0.341-0.676,0.422-1.378,0.207-2.107
		c0.396-0.702,0.459-1.448,0.299-2.224c0.349-0.67,0.419-1.369,0.227-2.098c0.408-0.693,0.504-1.435,0.343-2.217
		c0.32-0.491,0.397-1.011,0.187-1.565c0.397-0.694,0.498-1.438,0.349-2.219c0.325-0.487,0.406-1.007,0.208-1.563
		c0.367-0.513,0.458-1.075,0.315-1.684c0.332-0.482,0.417-1.001,0.221-1.559c0.366-0.512,0.46-1.075,0.318-1.685
		c0.329-0.481,0.429-0.998,0.233-1.559c0.383-0.502,0.471-1.065,0.34-1.672c0.333-0.482,0.463-1,0.27-1.572
		c0.312-0.327,0.374-0.71,0.253-1.134c0.339-0.48,0.445-0.999,0.261-1.566c0.318-0.328,0.379-0.714,0.262-1.142
		c0.343-0.474,0.463-0.99,0.287-1.562c0.324-0.319,0.398-0.703,0.281-1.132c0.291-0.299,0.373-0.637,0.191-1.024
		c0.313-0.328,0.404-0.716,0.296-1.153c0.356-0.467,0.467-0.983,0.298-1.552c0.325-0.319,0.4-0.702,0.292-1.133
		c0.292-0.299,0.382-0.636,0.203-1.025c0.325-0.321,0.413-0.707,0.312-1.144c0.302-0.292,0.388-0.628,0.208-1.017
		c0.312-0.326,0.418-0.709,0.317-1.149c0.305-0.288,0.383-0.624,0.211-1.012c0.31-0.329,0.418-0.713,0.315-1.155
		c0.476-1.003,0.859-2.028,0.791-3.168c0.33-0.313,0.438-0.695,0.343-1.138c0.301-0.29,0.417-0.624,0.241-1.026
		c0.338-0.308,0.432-0.688,0.334-1.125c0.498-0.813,0.798-1.684,0.719-2.654c0.346-0.304,0.445-0.687,0.361-1.127
		c0.691-1.345,1.168-2.752,1.244-4.275c0.59-0.824,0.849-1.755,0.901-2.753c1.082-2.421,1.924-4.922,2.479-7.518
		c0.423-0.359,0.541-0.825,0.47-1.356c0.882-1.41,1.374-2.96,1.655-4.585c0.444-0.347,0.562-0.816,0.508-1.351
		c0.679-0.877,1.067-1.865,1.149-2.973c0.425-0.331,0.55-0.775,0.488-1.29c0.493-0.348,0.634-0.838,0.57-1.411
		c0.438-0.32,0.569-0.763,0.515-1.281c0.496-0.35,0.645-0.843,0.59-1.42c0.428-0.312,0.562-0.744,0.507-1.252
		c0.657-0.716,1.003-1.562,1.062-2.527c0.653-0.68,0.985-1.498,1.062-2.431c0.675-0.67,1.003-1.493,1.065-2.433
		c0.65-0.671,0.994-1.482,1.101-2.402c0.873-1.029,1.375-2.231,1.647-3.542c2.018-3.443,3.762-7.024,5.335-10.691
		c0.917-0.949,1.442-2.109,1.803-3.356c0.9-1.089,1.578-2.298,1.984-3.655c0.735-0.592,1.112-1.392,1.321-2.288
		c0.485-0.395,0.813-0.875,0.828-1.524c0.51-0.229,0.696-0.65,0.711-1.177c0.524-0.39,0.857-0.89,0.899-1.558
		c0.753-0.558,1.131-1.343,1.351-2.224c0.088-0.166,0.176-0.332,0.264-0.498c0.504-0.206,0.703-0.604,0.703-1.124
		c0.542-0.368,0.879-0.861,0.937-1.526c0.511-0.225,0.726-0.644,0.769-1.174c0.888-0.895,1.554-1.926,1.939-3.132
		c0.518-0.229,0.754-0.647,0.81-1.19c0.088-0.149,0.176-0.301,0.264-0.451c0.518-0.219,0.752-0.631,0.806-1.168
		c0.092-0.154,0.182-0.308,0.271-0.462c0.518-0.213,0.745-0.626,0.796-1.161c0.093-0.158,0.186-0.316,0.278-0.476
		c0.519-0.205,0.748-0.613,0.804-1.146c0.094-0.154,0.188-0.31,0.282-0.463c0.524-0.207,0.77-0.615,0.83-1.157
		c0.842-0.744,1.49-1.62,1.847-2.696c0.513-0.18,0.733-0.57,0.78-1.086c0.104-0.163,0.211-0.326,0.316-0.488
		c0.523-0.197,0.784-0.59,0.848-1.132c0.441-0.227,0.729-0.562,0.756-1.08c0.523-0.17,0.751-0.562,0.812-1.082
		c0.1-0.149,0.199-0.301,0.298-0.451c0.54-0.22,0.816-0.637,0.896-1.198c0.442-0.182,0.694-0.501,0.715-0.987
		c0.539-0.208,0.825-0.613,0.911-1.172c0.636-0.367,1.065-0.89,1.22-1.62c0.519-0.161,0.771-0.533,0.835-1.054
		c0.449-0.223,0.751-0.554,0.797-1.074c0.537-0.185,0.818-0.573,0.904-1.121c0.637-0.356,1.079-0.868,1.255-1.588
		c0.536-0.181,0.825-0.563,0.912-1.112c0.634-0.354,1.08-0.859,1.252-1.581c0.537-0.184,0.835-0.564,0.93-1.116
		c0.812-0.525,1.421-1.218,1.771-2.127c0.712-0.351,1.176-0.914,1.422-1.664c0.817-0.534,1.454-1.222,1.812-2.144
		c0.719-0.338,1.203-0.887,1.47-1.632c1.176-0.875,2.144-1.936,2.855-3.221c1.075-0.694,1.92-1.604,2.541-2.724
		c3.619-3.616,7.259-7.213,10.849-10.856c1.635-1.658,3.522-3.062,4.946-4.928c0.932-0.442,1.658-1.104,2.151-2.017
		c1.298-0.717,2.352-1.711,3.247-2.882c0.737-0.256,1.276-0.731,1.604-1.443c1.102-0.546,2-1.33,2.721-2.323
		c0.539-0.09,0.903-0.386,1.063-0.918c0.255-0.153,0.511-0.308,0.767-0.463c0-0.001-0.118,0.06-0.118,0.06
		c0.598-0.369,1.19-0.744,1.524-1.4c0.53-0.091,0.901-0.371,1.062-0.898c0.259-0.16,0.518-0.321,0.775-0.482
		c0-0.001-0.11,0.06-0.11,0.06c0.774-0.549,1.552-1.099,2.328-1.647l-0.158-0.022c0.194-0.162,0.389-0.323,0.583-0.489l-0.063,0.138
		c0.517-0.484,1.204-0.789,1.536-1.468c0.562-0.081,0.951-0.382,1.153-0.916c0.495-0.03,0.81-0.304,1-0.742
		c0.545-0.083,0.935-0.36,1.122-0.893c0.518-0.044,0.852-0.338,1.07-0.787c0.521-0.07,0.896-0.325,1.062-0.844
		c0.525-0.041,0.866-0.34,1.1-0.788c0.521-0.085,0.962-0.276,1.113-0.847c0.483-0.059,0.815-0.33,1.049-0.742
		c0.535-0.065,0.931-0.32,1.121-0.844c0.73-0.096,1.181-0.67,1.758-1.029c0.001-0.001-0.125,0.094-0.125,0.094
		c0.343-0.314,0.687-0.631,1.028-0.946c0.599-0.068,1.048-0.352,1.304-0.91l0.207,0.029c0,0,0.065-0.198,0.064-0.198
		c0.579-0.082,1.044-0.32,1.262-0.905c0.679-0.103,1.147-0.577,1.675-0.95c0-0.001-0.125,0.078-0.125,0.078
		c0.58-0.385,1.158-0.771,1.738-1.156c0-0.002-0.124,0.1-0.124,0.1c0.583-0.395,1.166-0.788,1.75-1.184
		c0.001-0.002-0.125,0.096-0.125,0.096c0.586-0.391,1.171-0.779,1.761-1.168c0.003,0.001-0.117-0.01-0.117-0.01
		c0.582-0.361,1.164-0.725,1.75-1.087c0.004,0.001-0.105,0-0.105,0c0.128-0.118,0.257-0.237,0.385-0.356
		c0.587-0.06,1.061-0.298,1.328-0.854l0.214,0.032c0,0,0.085-0.2,0.084-0.199c0.543-0.061,0.985-0.275,1.224-0.801
		c0.397-0.172,0.795-0.346,1.195-0.517c0.004,0-0.119-0.016-0.119-0.016c0.133-0.121,0.265-0.241,0.396-0.361
		c0.597-0.04,1.062-0.287,1.339-0.839l0.208,0.037l0.08-0.194c0.553-0.058,0.999-0.282,1.26-0.8c0.496-0.015,0.878-0.28,1.253-0.562
		c-0.057,0-0.101-0.004-0.134-0.012c0.195,0.035,0.302-0.047,0.322-0.244c0.56-0.051,1.011-0.279,1.283-0.794
		c0.482-0.015,0.858-0.261,1.207-0.565c-0.063,0.02-0.105,0.015-0.127-0.016c0.385-0.165,0.77-0.328,1.155-0.493
		c0.001,0-0.134-0.024-0.134-0.024c0.131-0.114,0.263-0.229,0.395-0.344c0.614-0.035,1.107-0.277,1.42-0.832
		c0.359-0.151,0.72-0.303,1.08-0.456l-0.13-0.015c0.38-0.167,0.761-0.335,1.144-0.502c0.004,0.001-0.112-0.008-0.112-0.008
		c0.206-0.008,0.333-0.11,0.384-0.31c0.962-0.235,1.824-0.65,2.488-1.413c0.365-0.151,0.73-0.306,1.096-0.459
		c-0.069,0.033-0.111,0.028-0.127-0.015c0.394-0.165,0.786-0.33,1.182-0.495c0.002,0-0.122-0.02-0.122-0.02
		c0.378-0.176,0.757-0.35,1.138-0.522c0.004,0.001-0.107-0.005-0.107-0.005c0.407-0.176,0.814-0.354,1.223-0.529
		c0.001,0-0.139-0.026-0.139-0.026c0.207-0.013,0.338-0.119,0.394-0.317c3.915-1.749,7.776-3.607,11.504-5.732
		c0.426-0.146,0.853-0.291,1.278-0.438c0-0.001-0.133-0.014-0.133-0.014c0.406-0.179,0.812-0.356,1.217-0.535
		c-0.001,0-0.094,0.028-0.094,0.028l-0.022-0.051c0.399-0.178,0.799-0.354,1.197-0.533c-0.001,0-0.101,0.035-0.101,0.035
		l0.024-0.057c0.345,0.002,0.626-0.132,0.843-0.4c1.095-0.13,2.054-0.567,2.896-1.273c0.36,0.013,0.657-0.119,0.888-0.398
		c1.076-0.104,2.001-0.56,2.833-1.228c0.381,0.014,0.697-0.122,0.95-0.407c1.122-0.082,2.102-0.518,2.983-1.198
		c0.324,0.028,0.59-0.083,0.795-0.334c0.724,0.003,1.362-0.202,1.86-0.753c0.336,0.035,0.617-0.074,0.841-0.327
		c1.242-0.155,2.387-0.565,3.408-1.302c0.365,0.028,0.669-0.094,0.916-0.364c1.242-0.139,2.389-0.539,3.419-1.255
		c0.402,0.016,0.753-0.109,1.053-0.378c0.22,0.159,0.391,0.176,0.445-0.151c0.394,0.016,0.736-0.108,1.026-0.373
		c0.943,0.099,1.734-0.406,2.57-0.69c17.836-6.055,36.07-10.435,54.719-13.106c3.369-0.481,6.787-0.653,10.106-1.471
		c0.625,0.169,1.228,0.104,1.808-0.177c1.225,0.144,2.427,0.079,3.592-0.365c0.803,0.183,1.588,0.124,2.354-0.178
		c1.569,0.134,3.121,0.05,4.646-0.369c0.969,0.195,1.924,0.146,2.865-0.153c1.435,0.276,2.867,0.017,4.293-0.052
		c17.279-0.815,34.492-0.063,51.656,2.031c0.616,0.075,1.243,0.065,1.866,0.097c0.354,0.234,0.729,0.277,1.126,0.134
		c3.344,0.572,6.68,1.204,10.037,1.7c2.736,0.404,5.406,1.212,8.189,1.312c0.361,0.303,0.772,0.357,1.219,0.243
		c2.059,0.695,4.156,1.218,6.335,1.353c0.354,0.324,0.771,0.388,1.225,0.282c0.998,0.538,2.063,0.781,3.196,0.734
		c0.318,0.331,0.704,0.406,1.138,0.304c0.294,0.294,0.628,0.401,1.025,0.221c0.319,0.328,0.705,0.413,1.141,0.311
		c0.997,0.518,2.046,0.819,3.179,0.791c0.393,0.378,0.866,0.468,1.387,0.394c0.714,0.529,1.519,0.714,2.394,0.63
		c0.313,0.338,0.7,0.437,1.144,0.349c0.288,0.299,0.621,0.417,1.023,0.262c0.363,0.379,0.813,0.468,1.312,0.395
		c1.271,0.706,2.631,1.12,4.087,1.204c0.372,0.39,0.845,0.483,1.358,0.454l0.037,0.031l-0.127-0.002
		c0.535,0.318,1.111,0.498,1.736,0.519c0.001-0.001-0.003,0.024-0.003,0.024h-0.107c0.552,0.283,1.125,0.492,1.759,0.463
		c0.136,0.303,0.332,0.42,0.633,0.199c0.285,0.25,0.617,0.36,0.996,0.332c0.685,0.576,1.5,0.758,2.366,0.781
		c0.294,0.125,0.587,0.25,0.88,0.374l-0.129,0.015c0.57,0.172,1.141,0.343,1.711,0.513c0.002,0,0.008,0.026,0.008,0.026
		l-0.114-0.002c0.512,0.295,1.047,0.509,1.653,0.473c1.082,0.715,2.276,1.113,3.556,1.276c0.235,0.255,0.524,0.367,0.871,0.334
		c0.127,0.322,0.336,0.442,0.663,0.262c0.221,0.235,0.494,0.336,0.814,0.298c0.535,0.572,1.227,0.745,1.976,0.767
		c0.219,0.24,0.488,0.34,0.812,0.297c0.511,0.546,1.156,0.761,1.889,0.746c0.213,0.254,0.484,0.365,0.814,0.335
		c0.507,0.557,1.154,0.771,1.888,0.775c0.202,0.243,0.46,0.347,0.773,0.312c0.52,0.564,1.192,0.757,1.929,0.798
		c0.26,0.104,0.52,0.209,0.777,0.314l0.059,0.153l0.003-0.127c0.298,0.296,0.656,0.454,1.076,0.473
		c0.862,0.705,1.837,1.152,2.948,1.289c0.22,0.26,0.5,0.387,0.842,0.381l0.021,0.05l-0.106-0.024
		c0.402,0.153,0.805,0.308,1.206,0.461c0.84,0.721,1.812,1.159,2.9,1.348c0.181,0.241,0.42,0.347,0.719,0.318l0.063,0.203
		l0.146-0.11c0.253,0.287,0.57,0.438,0.953,0.451l0.055,0.125l-0.04-0.11c0.373,0.179,0.746,0.356,1.119,0.535l0.014,0.051
		l-0.104-0.026c0.402,0.176,0.806,0.353,1.209,0.527l-0.037,0.046l-0.083-0.026c0.404,0.175,0.809,0.351,1.214,0.525
		c-0.018,0.03-0.061,0.036-0.127,0.018c0.402,0.175,0.805,0.35,1.208,0.523c0.001,0-0.127,0.018-0.127,0.018
		c0.404,0.176,0.808,0.353,1.213,0.528l-0.13,0.017c0.404,0.176,0.808,0.351,1.212,0.525l-0.131,0.018
		c0.403,0.176,0.809,0.353,1.213,0.527l-0.132,0.018c0.404,0.175,0.811,0.35,1.215,0.523c0-0.002-0.131,0.018-0.131,0.018
		c0.402,0.171,0.806,0.343,1.209,0.514l-0.127,0.018c0.393,0.17,0.785,0.341,1.177,0.512l-0.015,0.054l-0.094-0.032
		c0.388,0.17,0.774,0.341,1.161,0.511l0.021,0.066l-0.088-0.051c0.667,0.566,1.386,1.029,2.282,1.139
		c0.633,0.729,1.461,1.106,2.379,1.321c0.028,0.192,0.139,0.282,0.332,0.268l-0.125,0.018c0.395,0.165,0.789,0.329,1.186,0.493
		l-0.031,0.053l-0.083-0.032c0.349,0.157,0.697,0.314,1.045,0.472c0.692,0.755,1.561,1.198,2.54,1.45
		c0.021,0.195,0.125,0.271,0.318,0.225c-0.018,0.034-0.062,0.038-0.132,0.013c0.375,0.294,0.765,0.556,1.266,0.571
		c0.258,0.517,0.705,0.728,1.253,0.775c0.036,0.197,0.155,0.298,0.355,0.3c-0.002-0.001-0.108,0.007-0.108,0.007
		c0.374,0.161,0.747,0.322,1.121,0.483c0-0.001,0.007,0.06,0.007,0.06l-0.09-0.042c0.602,0.377,1.205,0.755,1.805,1.131
		c0-0.001-0.125,0.004-0.125,0.004c0.937,0.536,1.871,1.071,2.807,1.605c-0.002-0.003-0.108,0.01-0.108,0.01
		c0.39,0.178,0.778,0.356,1.167,0.536c0.268,0.516,0.707,0.766,1.271,0.818l0.084,0.203h0.221l-0.019,0.051l-0.099-0.025
		c0.602,0.369,1.202,0.738,1.801,1.105c-0.001-0.001-0.111,0.015-0.111,0.015c0.586,0.359,1.172,0.722,1.756,1.081
		c-0.001-0.001-0.112,0.004-0.112,0.004c0.579,0.361,1.158,0.724,1.735,1.084c0-0.002-0.131,0-0.131,0
		c0.576,0.381,1.151,0.762,1.728,1.145c0.001,0.001-0.058-0.119-0.058-0.119c0.323,0.295,0.674,0.541,1.129,0.577
		c0.25,0.528,0.673,0.806,1.247,0.868c0.2,0.393,0.538,0.616,0.938,0.761c-0.001-0.001-0.112,0.009-0.112,0.009
		c0.573,0.35,1.147,0.699,1.722,1.049c0-0.001-0.124,0.02-0.124,0.02c0.56,0.417,1.051,0.953,1.795,1.057
		c0.208,0.525,0.613,0.78,1.159,0.845c0.32,0.296,0.643,0.591,0.966,0.887c0.001,0.001-0.053-0.113-0.053-0.113
		c0.49,0.475,0.964,0.976,1.687,1.089c0.224,0.539,0.635,0.827,1.207,0.899c0.165,0.376,0.445,0.591,0.859,0.618
		c0.245,0.58,0.691,0.892,1.308,0.977c0.183,0.441,0.498,0.706,0.986,0.735c0.206,0.539,0.602,0.838,1.168,0.92
		c0.31,0.65,0.971,0.914,1.479,1.351c0.001,0-0.06-0.112-0.06-0.112c0.72,0.604,1.355,1.329,2.301,1.614
		c0.197,0.537,0.586,0.837,1.146,0.924c0.343,0.633,0.843,1.066,1.553,1.238c0.197,0.539,0.583,0.846,1.146,0.934
		c0.532,0.81,1.238,1.406,2.148,1.751c0.175,0.536,0.546,0.841,1.097,0.936c0.31,0.626,0.81,1.029,1.461,1.255
		c-0.036,0.028-0.075,0.032-0.119,0.012c0.259,0.17,0.518,0.339,0.774,0.509c0.184,0.541,0.558,0.856,1.119,0.956
		c1.081,1.328,2.332,2.461,3.8,3.348c0.159,0.539,0.522,0.851,1.065,0.962c1.443,1.675,3.011,3.211,4.854,4.449
		c0.505,0.914,1.236,1.589,2.168,2.052c2.734,3.088,5.667,5.978,8.741,8.725c0.64,1.115,1.501,2.021,2.579,2.72
		c1.246,1.832,2.76,3.417,4.445,4.844c0.272,0.754,0.766,1.314,1.49,1.663c0.533,1.098,1.338,1.955,2.326,2.652
		c0.261,0.753,0.74,1.316,1.452,1.682c0.338,0.91,0.94,1.598,1.76,2.107c0.104,0.551,0.408,0.931,0.951,1.104
		c0.333,0.912,0.924,1.616,1.735,2.141c0.087,0.572,0.396,0.965,0.944,1.164c0.167,0.705,0.591,1.205,1.228,1.535
		c0.093,0.563,0.396,0.958,0.938,1.156c0.042,0.507,0.331,0.828,0.779,1.029c0.064,0.537,0.335,0.911,0.858,1.086
		c0.158,0.716,0.568,1.24,1.208,1.591c0.086,0.569,0.382,0.976,0.928,1.185c0.021,0.483,0.278,0.795,0.717,0.972
		c0.077,0.567,0.363,0.976,0.903,1.192c0.013,0.479,0.25,0.8,0.69,0.975c0.068,0.585,0.371,0.999,0.914,1.232
		c0.089,0.138,0.179,0.274,0.27,0.412c0.064,0.535,0.321,0.928,0.845,1.117c0.021,0.506,0.297,0.835,0.737,1.045
		c0.063,0.557,0.327,0.967,0.857,1.186c0.089,0.146,0.179,0.289,0.269,0.435c0.055,0.542,0.3,0.948,0.826,1.153
		c0.097,0.156,0.193,0.312,0.291,0.467c0.052,0.527,0.279,0.927,0.803,1.117c1.688,3.006,3.574,5.882,5.688,8.608
		c0.04,0.536,0.258,0.956,0.773,1.183c0.081,0.146,0.162,0.293,0.242,0.439c0.047,0.565,0.293,1.001,0.812,1.262
		c0.038,0.632,0.369,1.087,0.87,1.438c0.043,0.538,0.261,0.963,0.77,1.202c0.027,0.65,0.367,1.121,0.865,1.5
		c0.033,0.54,0.238,0.973,0.751,1.214c0.021,0.647,0.354,1.116,0.854,1.488c0.033,0.547,0.25,0.979,0.762,1.229
		c0.006,0.639,0.326,1.103,0.816,1.473c0.197,0.922,0.598,1.729,1.337,2.342c0.174,0.995,0.691,1.803,1.376,2.521
		c0.567,1.617,1.308,3.142,2.418,4.463c1.735,4.021,3.693,7.93,5.844,11.743c0.433,1.706,1.159,3.274,2.193,4.699
		c-0.045,0.514,0.096,0.946,0.544,1.245c0.22,1.35,0.769,2.555,1.605,3.633c-0.064,0.509,0.089,0.926,0.515,1.229
		c-0.004,1.029,0.576,1.867,0.941,2.766c2.234,5.472,4.367,10.982,6.28,16.575c1.301,3.804,2.596,7.608,3.894,11.413
		c-0.086,0.441,0.012,0.826,0.361,1.127c0.281,2.234,0.99,4.351,1.811,6.434c-0.096,0.439-0.01,0.823,0.336,1.13
		c0.725,4.006,1.725,7.943,2.918,11.833c-0.114,0.428-0.049,0.812,0.278,1.13c-0.187,0.576-0.046,1.087,0.302,1.561
		c-0.114,0.434-0.039,0.819,0.285,1.145c-0.196,0.396-0.098,0.733,0.195,1.035c-0.118,0.422-0.059,0.803,0.26,1.124
		c-0.194,0.578-0.044,1.094,0.292,1.574c-0.126,0.42-0.07,0.801,0.24,1.127c-0.208,0.581-0.054,1.097,0.282,1.58
		c-0.133,0.604-0.068,1.169,0.34,1.664c-0.198,0.565-0.088,1.083,0.25,1.562c-0.13,0.419-0.082,0.805,0.225,1.137
		c-0.186,0.746-0.041,1.44,0.32,2.104c-0.13,0.419-0.082,0.804,0.223,1.137c-0.199,0.748-0.045,1.441,0.312,2.106
		c-0.136,0.417-0.088,0.8,0.211,1.136c-0.188,0.92-0.021,1.794,0.346,2.641c-0.141,0.416-0.105,0.8,0.189,1.142
		c-0.191,0.921-0.027,1.795,0.343,2.644c-0.155,0.598-0.118,1.164,0.256,1.681c-0.21,0.913-0.09,1.792,0.274,2.646
		c-0.162,0.59-0.143,1.157,0.228,1.676c-0.207,1.094-0.039,2.148,0.321,3.185c-0.173,0.766-0.166,1.513,0.232,2.219
		c-0.207,1.267-0.072,2.506,0.301,3.728C918.979,347.822,919.168,348.737,919.3,349.654z M601.446,376.68
		c-1.352,1.271-2.465,2.313-3.577,3.359c-18.223,17.15-36.414,34.334-54.683,51.435c-6.854,6.414-13.398,13.072-18.765,20.816
		c-13.094,18.899-19.613,39.868-19.724,62.829c-0.062,12.877-0.007,25.754-0.014,38.631c-0.001,2.953,0.234,2.643-2.553,2.645
		c-7.475,0.014-14.948-0.053-22.422,0.027c-4.908,0.053-9.228,3.896-9.748,8.449c-0.658,5.76,2.326,10.424,7.506,11.818
		c1.248,0.336,2.494,0.307,3.75,0.307c90.227,0,180.451,0,270.677,0c0.54,0,1.081,0.016,1.621-0.002
		c4.939-0.166,9.312-4.074,9.821-8.773c0.579-5.348-2.433-10.143-7.285-11.51c-1.394-0.393-2.842-0.424-4.287-0.42
		c-5.674,0.012-11.347,0.006-17.02,0.004c-0.541,0-1.083-0.033-1.621,0.006c-1.086,0.078-1.744-0.232-1.592-1.49
		c0.065-0.533,0.01-1.08,0.01-1.621c0-12.156-0.039-24.312,0.015-36.469c0.034-7.586-0.628-15.094-2.164-22.52
		c-4.716-22.8-15.46-42.302-32.537-58.122c-20.54-19.026-41.31-37.806-61.976-56.694c-0.983-0.9-2.092-1.683-3.113-3.142
		c0.777-0.636,1.584-1.205,2.286-1.882c21.122-20.375,42.374-40.616,63.31-61.182c21.697-21.312,32.732-47.375,33.116-77.811
		c0.188-14.945,0.021-29.896,0.041-44.844c0.004-3.466-0.528-3.073,3.206-3.085c6.482-0.019,12.967,0.05,19.45-0.024
		c4.502-0.053,8.294-2.79,9.674-6.916c1.33-3.976,0.389-8.336-2.997-11.29c-2.166-1.89-4.682-2.401-7.5-2.4
		c-90.496,0.033-180.99,0.027-271.486,0.027c-0.27,0-0.542,0.02-0.81-0.003c-4.407-0.361-8.728,3.011-9.747,7.04
		c-1.217,4.806-0.158,8.583,3.7,11.542c1.928,1.479,4.161,2.033,6.577,2.026c6.662-0.02,13.326-0.002,19.989-0.009
		c2.07-0.002,2.106-0.145,2.076,2.042c-0.007,0.54,0,1.08,0,1.621c0,14.317-0.022,28.635,0.011,42.952
		c0.015,5.761,0.389,11.499,1.279,17.206c3.443,22.044,12.725,41.273,27.778,57.713c4.745,5.181,9.967,9.89,15.012,14.772
		c13.39,12.961,26.8,25.898,40.196,38.852C591.712,367.215,596.476,371.854,601.446,376.68z"/>
	<path fill="#43E8D8" d="M616.589,362.301c-3.069-2.952-6.049-5.811-9.021-8.678c-18.785-18.129-37.546-36.285-56.36-54.385
		c-13.211-12.709-21.856-27.96-25.8-45.86c-1.378-6.258-2.001-12.604-1.993-19.018c0.018-14.858,0.005-29.716,0.005-44.573
		c0-0.36,0.025-0.723-0.003-1.08c-0.07-0.886,0.244-1.352,1.21-1.275c0.626,0.051,1.259,0.008,1.891,0.008
		c60.06,0,120.121,0,180.182,0c0.271,0,0.54-0.002,0.81,0c2.315,0.024,2.334,0.024,2.334,2.347
		c0.005,14.858,0.129,29.717-0.027,44.573c-0.268,25.555-9.579,47.268-28.025,65.041c-20.227,19.486-40.406,39.023-60.606,58.537
		C619.706,359.366,618.204,360.77,616.589,362.301z"/>
	<path fill="#43E8D8" d="M616.953,391.09c2.131,1.946,4.318,3.939,6.501,5.938c20.055,18.351,40.238,36.563,60.122,55.1
		c13.919,12.976,22.29,29.157,25.803,47.846c1.134,6.031,1.535,12.127,1.528,18.258c-0.013,11.615,0.008,23.23-0.012,34.844
		c-0.006,3.457,0.557,3.217-3.104,3.219c-20.796,0.004-41.593,0-62.39,0c-38.895,0-77.788,0.006-116.683-0.008
		c-3.663,0-3.159,0.502-3.166-3.096c-0.021-12.336,0.033-24.67-0.017-37.004c-0.107-26.594,9.785-48.803,29.137-66.931
		c20.034-18.768,40.024-37.582,60.039-56.37C615.361,392.28,615.916,391.549,616.953,391.09z"/>
</g>
<g>
	<path fill="#43E8D8" d="M955.997,591.932l275.36-321.921h-266.36v-80h379v82.047L1066.591,595.01h291.407v80h-402L955.997,591.932
		L955.997,591.932z"/>
	<path fill="#43E8D8" d="M1405.107,190.01h107l143.812,378.812h2.047l137.142-378.812h99l-230,589.718
		c-8.203,21.156-16.75,40.439-25.625,57.846c-8.875,17.404-19.47,32.25-31.767,44.547c-12.297,12.266-27.156,21.828-44.578,28.656
		c-17.422,6.811-38.766,10.232-64.047,10.232c-13.672,0-27.516-0.857-41.516-2.561c-14-1.721-27.5-5.297-40.469-10.75l11.281-83.953
		c18.453,7.5,36.905,11.266,55.375,11.266c14.344,0,26.483-1.891,36.405-5.625c9.906-3.766,18.453-9.234,25.642-16.391
		c7.172-7.172,13.156-15.531,17.938-25.078c4.781-9.562,9.578-20.484,14.359-32.766l29.688-76.781L1405.107,190.01z"/>
</g>
<path fill="#43E8D8" d="M1989.188,691.373c-38.634,0.35-70.236-30.686-70.586-69.319s30.686-70.235,69.318-70.586
	c38.633-0.35,70.236,30.686,70.586,69.319c0.17,18.749-7.194,36.783-20.441,50.053
	C2025.31,684.146,2007.617,691.577,1989.188,691.373z"/>
</svg>
