<?xml version="1.0" encoding="utf-8"?>
<!-- Generator: Adobe Illustrator 16.0.0, SVG Export Plug-In . SVG Version: 6.00 Build 0)  -->
<!DOCTYPE svg PUBLIC "-//W3C//DTD SVG 1.1//EN" "http://www.w3.org/Graphics/SVG/1.1/DTD/svg11.dtd">
<svg version="1.1" id="Layer_1" xmlns="http://www.w3.org/2000/svg" xmlns:xlink="http://www.w3.org/1999/xlink" x="0px" y="0px"
	 width="852px" height="833.77px" viewBox="0 0 852 833.77" enable-background="new 0 0 852 833.77" xml:space="preserve">
<path fill-rule="evenodd" clip-rule="evenodd" fill="#FFFFFF" d="M810.542,387.457c0.139,2.293-0.003,4.609,0.582,6.864
	c-0.056,0.221-0.168,0.445-0.159,0.663c0.611,13.611,0.616,27.223,0.004,40.834c-0.01,0.219,0.101,0.443,0.154,0.665
	c-0.574,2.254-0.441,4.567-0.582,6.859c-0.158,1.171-0.402,2.341-0.105,3.527c-0.478,1.557-0.636,3.139-0.373,4.753
	c-0.524,0.899-0.529,1.855-0.312,2.836c-0.466,1.321-0.644,2.671-0.403,4.063c-0.481,0.662-0.513,1.385-0.292,2.144
	c-0.467,1.088-0.606,2.211-0.35,3.374c-0.484,0.659-0.537,1.384-0.331,2.148c-0.463,1.083-0.672,2.199-0.422,3.373
	c-0.491,0.65-0.527,1.371-0.331,2.128c-0.438,0.858-0.625,1.75-0.353,2.701c-0.39,0.429-0.446,0.921-0.275,1.457
	c-0.46,0.845-0.651,1.73-0.393,2.681c-0.395,0.428-0.458,0.92-0.293,1.459c-0.467,0.844-0.627,1.734-0.394,2.681
	c-0.404,0.424-0.469,0.918-0.297,1.459c-0.466,0.841-0.672,1.725-0.451,2.681c-0.403,0.415-0.473,0.901-0.308,1.438
	c-0.423,0.616-0.617,1.274-0.356,2.012c-0.403,0.416-0.477,0.904-0.313,1.443c-0.43,0.614-0.601,1.272-0.355,2.005
	c-0.417,0.408-0.496,0.897-0.345,1.441c-0.697,1.512-1.084,3.089-0.986,4.766c-0.424,0.406-0.517,0.897-0.369,1.45
	c-1.693,5.904-3.283,11.833-4.458,17.866c-0.446,0.388-0.553,0.877-0.425,1.435c-0.126,0.188-0.31,0.358-0.37,0.565
	c-3.59,12.405-7.705,24.631-12.417,36.654c-0.077,0.198-0.026,0.446-0.034,0.671c-0.524,0.408-0.713,0.945-0.615,1.594
	c-1.986,3.686-3.54,7.555-4.879,11.514c-0.549,0.383-0.739,0.919-0.665,1.567c-1.497,2.302-2.658,4.758-3.419,7.399
	c-0.827,0.82-1.297,1.808-1.396,2.971c-0.913,0.895-1.409,2-1.642,3.239c-0.369,0.202-0.52,0.501-0.415,0.918
	c-1.144,1.348-1.875,2.907-2.34,4.601c-1.111,1.397-1.972,2.924-2.41,4.668c-1.414,1.687-2.363,3.629-3.115,5.679
	c-0.63,0.479-1.028,1.084-1.027,1.905c-1.212,1.21-1.923,2.707-2.458,4.303c-0.096,0.188-0.193,0.375-0.29,0.562
	c-0.948,0.742-1.479,1.737-1.754,2.888c-0.102,0.196-0.205,0.393-0.306,0.588c-0.965,0.72-1.456,1.728-1.74,2.861
	c-0.107,0.204-0.215,0.408-0.322,0.612c-0.963,0.714-1.492,1.703-1.79,2.837c-0.102,0.18-0.204,0.36-0.306,0.54
	c-0.66,0.296-0.938,0.842-1,1.53c-0.638,0.446-1.056,1.024-1.097,1.828c-0.666,0.336-1.008,0.885-1.066,1.622l-0.303,0.163
	l0.006,0.344c-0.663,0.311-0.99,0.848-1.058,1.562c-0.105,0.176-0.21,0.353-0.315,0.529c-0.665,0.299-0.981,0.834-1.049,1.54
	c-0.108,0.184-0.216,0.367-0.324,0.551c-0.668,0.286-0.979,0.819-1.045,1.52c-0.111,0.187-0.221,0.374-0.331,0.561
	c-0.663,0.285-0.99,0.809-1.064,1.509c-0.109,0.175-0.218,0.35-0.328,0.526c-0.67,0.299-1.022,0.822-1.1,1.543l-0.299,0.139
	l0.001,0.329c-0.849,0.546-1.391,1.307-1.612,2.294c-0.134,0.213-0.268,0.425-0.402,0.636c-0.667,0.245-0.965,0.758-1.047,1.431
	c-0.121,0.186-0.241,0.37-0.361,0.554c-0.685,0.293-1.058,0.818-1.152,1.55c-0.566,0.235-0.884,0.646-0.896,1.271
	c-0.67,0.254-1.009,0.758-1.096,1.453l-0.312,0.143l-0.017,0.343c-0.872,0.53-1.426,1.299-1.703,2.275
	c-0.118,0.174-0.236,0.349-0.354,0.523c-0.9,0.52-1.475,1.293-1.778,2.278c-0.571,0.233-0.915,0.636-0.948,1.271
	c-0.688,0.258-1.054,0.767-1.158,1.482c-0.569,0.217-0.896,0.614-0.927,1.234c-0.899,0.498-1.484,1.248-1.796,2.221
	c-0.575,0.213-0.918,0.605-0.963,1.232c-0.905,0.492-1.507,1.23-1.806,2.216c-0.817,0.448-1.39,1.09-1.613,2.013
	c-0.9,0.458-1.495,1.176-1.812,2.129c-0.828,0.432-1.406,1.07-1.644,1.991c-0.915,0.457-1.519,1.18-1.844,2.143
	c-1.047,0.648-1.837,1.519-2.3,2.67c-1.158,0.672-2.007,1.622-2.551,2.845c-1.723,1.341-3.168,2.935-4.339,4.777
	c-1.377,0.896-2.473,2.055-3.262,3.499c-5.038,4.717-9.926,9.584-14.621,14.643c-1.702,0.988-3.104,2.298-4.209,3.926
	c-1.615,0.938-2.968,2.167-4.069,3.675c-1.458,0.771-2.65,1.836-3.569,3.207c-0.91,0.247-1.527,0.836-1.945,1.659
	c-1.218,0.528-2.203,1.328-2.888,2.479c-0.911,0.225-1.539,0.791-1.949,1.618c-0.97,0.322-1.706,0.922-2.18,1.833
	c-0.638,0.053-1.033,0.412-1.26,0.987c-0.96,0.303-1.7,0.876-2.169,1.779c-0.655,0.067-1.065,0.449-1.322,1.029
	c-0.948,0.283-1.66,0.857-2.132,1.728c-0.634,0.045-1.038,0.396-1.28,0.962c-1.059,0.333-1.894,0.961-2.489,1.901l-0.225-0.039
	l-0.031,0.227c-0.971,0.3-1.735,0.862-2.232,1.763c-0.618,0.028-1.021,0.348-1.243,0.914c-0.728,0.094-1.251,0.462-1.539,1.147
	c-0.186,0.123-0.371,0.246-0.557,0.369c-0.972,0.267-1.732,0.82-2.26,1.683c-0.167,0.113-0.334,0.226-0.501,0.338
	c-0.686,0.088-1.197,0.409-1.446,1.082c-0.626,0.019-1.042,0.339-1.287,0.902c-0.745,0.075-1.28,0.446-1.595,1.129
	c-0.167,0.106-0.334,0.213-0.5,0.32c-0.703,0.079-1.226,0.411-1.512,1.077c-0.186,0.115-0.372,0.232-0.558,0.349
	c-0.682,0.075-1.2,0.383-1.462,1.046c-0.203,0.126-0.406,0.252-0.607,0.377c-0.663,0.074-1.177,0.358-1.428,1.013
	c-0.214,0.127-0.429,0.255-0.643,0.383c-0.66,0.069-1.178,0.341-1.429,0.997c-0.214,0.124-0.427,0.248-0.641,0.371
	c-0.669,0.065-1.188,0.346-1.447,1.003c-0.208,0.122-0.415,0.244-0.623,0.367c-0.673,0.065-1.196,0.35-1.461,1.008
	c-0.203,0.118-0.405,0.235-0.608,0.353c-0.779,0.083-1.392,0.422-1.758,1.141l-0.215-0.06c0,0-0.052,0.217-0.051,0.217
	c-1.148,0.292-2.135,0.84-2.855,1.808c-0.213,0.117-0.427,0.234-0.64,0.352c-0.683,0.064-1.225,0.345-1.521,0.999
	c-0.182,0.104-0.364,0.207-0.546,0.309c-1.14,0.296-2.144,0.813-2.878,1.768c-0.19,0.102-0.381,0.203-0.572,0.304
	c-1.243,0.319-2.317,0.921-3.174,1.889l-0.186-0.063l-0.052,0.189c-1.703,0.564-3.224,1.444-4.566,2.635l-0.202-0.072
	c0,0-0.061,0.207-0.061,0.207c-2.167,0.774-4.16,1.858-5.946,3.314l-0.22-0.081c0,0-0.077,0.221-0.076,0.221
	c-0.514-0.134-0.84,0.075-1.021,0.554l-0.236-0.075l-0.086,0.232c-3.336,1.188-6.325,3.093-9.471,4.669
	c-3.652,1.83-7.475,3.328-10.949,5.508c-0.425-0.026-0.763,0.132-1.014,0.477c-1.215-0.023-2.161,0.719-3.19,1.179
	c-37.023,16.556-75.699,27.068-116.018,31.324c-65.273,6.891-128.392-1.832-189.222-26.659c-1.793-0.732-3.496-1.737-5.455-2.034
	l-0.103-0.221l-0.225,0.094c-4.598-2.393-9.275-4.611-14.146-6.401c-0.256-0.357-0.603-0.53-1.041-0.519
	c-0.197-0.469-0.533-0.666-1.039-0.523l-0.103-0.23c0,0-0.24,0.078-0.24,0.078c-0.195-0.472-0.531-0.668-1.038-0.53l-0.101-0.231
	c0,0-0.239,0.079-0.239,0.079c-0.639-0.769-1.492-1.112-2.457-1.232l-0.092-0.228c0,0-0.23,0.083-0.23,0.083
	c-0.617-0.765-1.458-1.088-2.398-1.214c-0.213-0.096-0.425-0.192-0.638-0.288c-0.088-0.424-0.351-0.545-0.75-0.429l-0.087-0.228
	c0,0-0.231,0.078-0.23,0.078c-0.198-0.478-0.535-0.695-1.058-0.562l-0.073-0.21c0,0-0.208,0.078-0.208,0.078
	c-2.243-1.702-4.753-2.905-7.35-3.95l-0.106-0.255c0,0-0.276-0.005-0.277-0.004c0,0,0.026-0.033,0.026-0.033l0.127,0.005
	c-0.467-0.202-0.935-0.402-1.401-0.604c-1.333-1.201-2.87-2.042-4.577-2.583l-0.069-0.228c0,0-0.228,0.071-0.227,0.072
	c-0.845-0.976-1.93-1.546-3.159-1.873l-0.11-0.264c0,0-0.285-0.016-0.286-0.016c-0.001,0.001,0.038-0.055,0.038-0.055l0.122,0.032
	c-0.45-0.204-0.899-0.408-1.349-0.611c-0.872-0.986-1.971-1.596-3.229-1.938l-0.043-0.175c0,0-0.171,0.054-0.171,0.054
	c-0.41-0.73-1.055-1.087-1.871-1.172l-0.08-0.244c0,0-0.25,0.058-0.25,0.058c-0.828-0.982-1.879-1.61-3.108-1.958l-0.042-0.187
	c0,0-0.183,0.056-0.183,0.056c-0.407-0.727-1.042-1.093-1.857-1.178l-0.069-0.241c0,0-0.245,0.056-0.244,0.056
	c-0.346-0.712-0.942-1.046-1.706-1.128c-0.211-0.123-0.422-0.247-0.633-0.369c-0.952-1.149-2.162-1.914-3.561-2.4l-0.111-0.269
	c0,0-0.289,0.033-0.289,0.034c-0.301-0.714-0.875-1.028-1.615-1.097c-0.216-0.134-0.431-0.269-0.646-0.402
	c-0.248-0.657-0.755-0.953-1.424-1.026c-0.2-0.122-0.4-0.245-0.599-0.368c-0.264-0.667-0.779-0.988-1.472-1.064
	c-0.177-0.112-0.354-0.225-0.531-0.337c-0.307-0.681-0.852-1.027-1.579-1.115l-0.03-0.179c0,0-0.176,0.044-0.176,0.044
	c-0.622-0.901-1.456-1.507-2.515-1.796c-0.196-0.128-0.392-0.256-0.588-0.385c-0.274-0.682-0.795-1.038-1.511-1.133
	c-0.249-0.564-0.662-0.898-1.296-0.92c-0.245-0.67-0.748-0.996-1.434-1.08c-0.168-0.114-0.335-0.229-0.503-0.342
	c-0.531-0.89-1.314-1.451-2.294-1.752c-0.247-0.573-0.658-0.923-1.3-0.96c-0.249-0.681-0.751-1.041-1.454-1.145
	c-0.473-0.823-1.153-1.374-2.089-1.586c-0.196-0.661-0.672-0.974-1.327-1.062c-0.509-0.825-1.185-1.441-2.148-1.689
	c-0.188-0.656-0.645-0.989-1.302-1.081c-0.501-0.827-1.175-1.436-2.135-1.682c-0.214-0.663-0.677-1.025-1.356-1.129
	c-0.446-0.825-1.094-1.404-2.012-1.655c-0.454-0.902-1.167-1.502-2.125-1.816c-0.677-1.055-1.572-1.851-2.751-2.307
	c-0.437-0.903-1.133-1.517-2.075-1.854c-1.131-1.503-2.485-2.754-4.142-3.662c-0.424-0.917-1.117-1.539-2.065-1.88
	c-3.216-3.536-6.691-6.799-10.377-9.839c-0.854-1.407-1.984-2.535-3.395-3.382c-3.273-3.916-6.783-7.608-10.529-11.074
	c-0.349-0.941-0.966-1.637-1.884-2.057c-0.91-1.658-2.152-3.022-3.666-4.145c-0.338-0.94-0.946-1.642-1.848-2.083
	c-0.461-1.175-1.265-2.061-2.31-2.744c-0.315-0.956-0.915-1.669-1.818-2.121c-0.251-0.918-0.833-1.565-1.655-2.015
	c-0.31-0.954-0.884-1.689-1.785-2.153c-0.215-0.915-0.768-1.562-1.586-1.999c-0.114-0.707-0.491-1.199-1.177-1.438
	c-0.215-0.917-0.759-1.573-1.581-2.012c-0.107-0.715-0.478-1.222-1.167-1.478c-0.033-0.634-0.377-1.037-0.944-1.274
	c-0.102-0.701-0.453-1.207-1.137-1.451c-0.036-0.648-0.391-1.058-0.967-1.306c-0.105-0.681-0.44-1.183-1.116-1.417
	c-0.042-0.669-0.411-1.104-0.991-1.39c-0.09-0.67-0.395-1.179-1.065-1.41c-0.02-0.638-0.358-1.052-0.922-1.306
	c-0.092-0.715-0.448-1.234-1.128-1.511c-0.131-0.2-0.262-0.401-0.393-0.601c-0.075-0.654-0.37-1.142-1.023-1.362
	c-0.025-0.665-0.381-1.105-0.952-1.398c-0.079-0.698-0.402-1.221-1.073-1.493c-0.119-0.192-0.238-0.384-0.357-0.576
	c-0.078-0.675-0.375-1.192-1.04-1.444c-0.128-0.208-0.257-0.417-0.385-0.625c-0.069-0.66-0.353-1.164-1.01-1.4
	c-0.258-1.142-0.919-2.017-1.812-2.738c-0.03-0.66-0.304-1.155-0.948-1.4c-0.138-0.224-0.277-0.447-0.415-0.67
	c-0.041-0.661-0.304-1.172-0.959-1.417c-0.132-0.218-0.264-0.435-0.396-0.653c-0.055-0.663-0.322-1.18-0.979-1.432
	c-0.12-0.212-0.24-0.425-0.36-0.637c-0.058-0.683-0.336-1.22-0.993-1.508c-0.059-0.853-0.493-1.476-1.185-1.94
	c-0.009-0.666-0.271-1.169-0.914-1.428c-0.118-0.214-0.235-0.428-0.354-0.643c-0.062-0.683-0.332-1.232-0.99-1.53
	c-0.049-0.831-0.476-1.44-1.125-1.918c-0.038-0.681-0.296-1.226-0.946-1.526c-0.025-0.833-0.448-1.44-1.091-1.923
	c-0.053-0.687-0.311-1.248-0.968-1.561c-0.284-1.276-0.93-2.348-1.846-3.268c-0.22-1.137-0.717-2.115-1.633-2.854
	c-0.248-1.316-0.915-2.403-1.83-3.355c-0.457-1.587-1.125-3.061-2.3-4.26c-2.47-5.606-5.212-11.078-8.181-16.436
	c-0.357-1.669-0.994-3.208-2.11-4.522c-0.12-1.17-0.509-2.22-1.357-3.067c-0.069-1.23-0.547-2.281-1.396-3.168
	c0.053-0.682-0.127-1.264-0.724-1.662c-0.052-1.228-0.507-2.286-1.338-3.186c0.077-0.668-0.092-1.236-0.663-1.642
	c0.083-0.723-0.11-1.333-0.728-1.77c0.063-0.68-0.103-1.266-0.688-1.68c0.095-0.711-0.084-1.311-0.697-1.737
	c0.072-0.68-0.08-1.275-0.65-1.711c0.095-0.734-0.084-1.362-0.708-1.815c0.095-0.652-0.068-1.209-0.599-1.632
	c-0.39-2.084-1.063-4.061-2.189-5.87c0.099-0.676-0.051-1.266-0.595-1.719c-1.215-4.677-2.745-9.25-4.55-13.731
	c0.097-0.573-0.054-1.062-0.489-1.455c-0.095-1.94-0.713-3.728-1.58-5.444c0.108-0.571-0.033-1.061-0.475-1.453
	c0.115-1.236-0.28-2.337-0.904-3.376c0.125-0.563-0.001-1.052-0.434-1.449c0.216-0.505,0.087-0.931-0.298-1.298
	c0.12-0.569-0.028-1.058-0.442-1.466c-0.47-3.264-1.236-6.456-2.351-9.562c0.132-0.565,0.001-1.058-0.404-1.476
	c0.226-0.491,0.126-0.92-0.251-1.296c0.138-0.556,0.037-1.049-0.38-1.46c0.234-0.5,0.118-0.933-0.253-1.316
	c0.146-0.545,0.062-1.033-0.355-1.439c0.229-0.733,0.053-1.389-0.386-1.994c0.141-0.553,0.042-1.045-0.371-1.458
	c0.223-0.722,0.08-1.377-0.358-1.979c0.154-0.553,0.065-1.047-0.34-1.471c0.235-0.719,0.108-1.378-0.329-1.985
	c0.155-0.547,0.079-1.043-0.33-1.463c0.232-0.722,0.096-1.383-0.331-1.996c0.169-0.781,0.051-1.501-0.439-2.146
	c0.24-0.71,0.129-1.368-0.296-1.979c0.171-0.542,0.099-1.036-0.292-1.465c0.241-0.946,0.067-1.832-0.388-2.676
	c0.168-0.543,0.093-1.037-0.301-1.464c0.234-0.944,0.08-1.833-0.372-2.681c0.194-0.768,0.13-1.493-0.354-2.148
	c0.258-0.94,0.123-1.831-0.329-2.684c0.202-0.766,0.144-1.491-0.347-2.146c0.262-0.94,0.121-1.833-0.316-2.691
	c0.201-1.218,0.105-2.398-0.447-3.52c0.267-0.93,0.169-1.823-0.266-2.682c0.211-0.988,0.153-1.94-0.365-2.834
	c0.248-1.383,0.14-2.738-0.324-4.064c0.199-1.44,0.152-2.855-0.425-4.217c0.248-1.603,0.165-3.186-0.286-4.745
	c0.418-1.873-0.169-3.737-0.046-5.607c-0.794-11.633-0.698-23.274-0.393-34.92c0.056-2.155,0.418-4.313,0.021-6.471
	c0.573-2.069,0.65-4.17,0.415-6.292c0.459-1.56,0.543-3.143,0.3-4.747c0.56-1.362,0.648-2.771,0.422-4.211
	c0.444-1.099,0.526-2.225,0.259-3.376c0.53-1.126,0.641-2.305,0.434-3.522c0.433-0.861,0.536-1.756,0.265-2.688
	c0.51-0.896,0.589-1.851,0.382-2.844c0.444-0.854,0.533-1.746,0.289-2.674c0.526-0.886,0.649-1.834,0.439-2.834
	c0.407-0.625,0.505-1.288,0.237-1.994c0.512-0.889,0.641-1.838,0.446-2.837c0.414-0.621,0.516-1.284,0.265-1.993
	c0.474-0.654,0.59-1.375,0.403-2.153c0.422-0.616,0.531-1.275,0.281-1.986c0.473-0.654,0.593-1.375,0.407-2.154
	c0.419-0.614,0.545-1.272,0.298-1.986c0.492-0.643,0.604-1.362,0.435-2.14c0.364-0.388,0.452-0.82,0.211-1.306
	c0.488-0.646,0.626-1.365,0.456-2.15c0.431-0.612,0.565-1.273,0.331-1.995c0.411-0.419,0.489-0.914,0.335-1.462
	c0.437-0.604,0.589-1.262,0.366-1.988c0.417-0.41,0.513-0.898,0.36-1.45c0.371-0.38,0.474-0.812,0.243-1.304
	c0.405-0.421,0.521-0.916,0.38-1.477c0.454-0.596,0.594-1.253,0.379-1.978c0.418-0.408,0.516-0.899,0.375-1.451
	c0.371-0.378,0.486-0.808,0.257-1.305c0.419-0.409,0.531-0.904,0.402-1.464c0.383-0.371,0.491-0.798,0.265-1.294
	c0.402-0.417,0.537-0.907,0.406-1.472c0.388-0.367,0.486-0.794,0.268-1.287c0.399-0.421,0.538-0.913,0.405-1.479
	c0.604-1.28,1.096-2.587,1.009-4.041c0.425-0.402,0.562-0.89,0.439-1.457c0.382-0.371,0.53-0.795,0.306-1.307
	c0.435-0.394,0.554-0.88,0.426-1.44c0.633-1.041,1.017-2.147,0.915-3.386c0.761-1.054,1.045-2.256,1.096-3.531
	c0.637-1.032,1.066-2.123,0.956-3.367c0.753-1.053,1.077-2.246,1.153-3.521c1.378-3.091,2.455-6.281,3.163-9.594
	c0.797-1.117,1.261-2.352,1.301-3.733c0.838-1.15,1.327-2.428,1.412-3.854c0.574-0.441,0.724-1.042,0.651-1.728
	c0.865-1.119,1.362-2.38,1.466-3.792c0.548-0.421,0.708-0.989,0.624-1.649c0.63-0.443,0.809-1.068,0.728-1.799
	c0.565-0.407,0.734-0.974,0.657-1.639c0.634-0.445,0.823-1.074,0.754-1.811c0.813-0.889,1.215-1.947,1.29-3.14
	c0.598-0.41,0.799-0.988,0.713-1.688c0.842-0.865,1.266-1.914,1.361-3.107c0.62-0.413,0.826-1.008,0.759-1.724
	c1.027-1.32,1.668-2.815,2.004-4.448c1.115-1.314,1.754-2.849,2.102-4.52c2.583-4.398,4.81-8.973,6.816-13.658
	c1.168-1.211,1.838-2.689,2.298-4.28c1.156-1.389,2.021-2.935,2.537-4.671c0.641-0.314,0.882-0.856,0.882-1.538
	c0.942-0.931,1.584-2.03,1.864-3.332c0.648-0.29,0.886-0.826,0.901-1.497c0.678-0.495,1.103-1.137,1.154-1.994
	c0.952-0.716,1.44-1.712,1.722-2.834c1.105-1.164,1.968-2.474,2.431-4.025c0.651-0.286,0.922-0.819,0.976-1.495
	c1.142-1.14,1.992-2.459,2.482-4.003c0.659-0.29,0.96-0.825,1.031-1.515c0.113-0.194,0.226-0.388,0.339-0.581
	c0.659-0.278,0.957-0.804,1.026-1.488c0.116-0.198,0.233-0.396,0.349-0.594c0.659-0.271,0.948-0.797,1.014-1.476
	c0.12-0.204,0.239-0.409,0.359-0.613c0.661-0.261,0.953-0.781,1.022-1.457c0.121-0.199,0.242-0.398,0.363-0.598
	c0.669-0.263,0.98-0.784,1.057-1.472c1.079-0.95,1.91-2.069,2.361-3.449c0.653-0.229,0.934-0.724,0.99-1.38
	c0.137-0.21,0.273-0.42,0.41-0.63c0.666-0.25,0.998-0.751,1.079-1.439c0.568-0.29,0.938-0.719,0.968-1.385
	c0.667-0.216,0.956-0.717,1.035-1.375c1.946-2.146,3.786-4.37,5.163-6.939c0.66-0.204,0.98-0.678,1.063-1.339
	c0.578-0.283,0.964-0.708,1.021-1.377c0.684-0.233,1.042-0.73,1.152-1.426c0.816-0.455,1.383-1.108,1.605-2.032
	c0.682-0.23,1.05-0.717,1.162-1.415c0.813-0.453,1.384-1.098,1.602-2.023c0.683-0.234,1.063-0.72,1.184-1.422
	c1.26-0.928,2.271-2.065,2.928-3.498c0.676-0.195,1.033-0.666,1.149-1.341c1.047-0.682,1.862-1.56,2.316-2.743
	c0.916-0.431,1.533-1.13,1.874-2.079c1.506-1.115,2.743-2.469,3.649-4.116c1.372-0.886,2.448-2.047,3.242-3.472
	c4.459-4.457,8.95-8.882,13.364-13.383c2.242-2.287,4.841-4.214,6.808-6.774c1.187-0.566,2.113-1.411,2.743-2.572
	c1.885-1.135,3.481-2.595,4.851-4.31c0.688-0.139,1.151-0.527,1.344-1.213c1.411-0.695,2.56-1.697,3.478-2.969
	c0.688-0.116,1.151-0.491,1.355-1.168c0.325-0.201,0.649-0.402,0.974-0.604c0,0-0.148,0.078-0.148,0.078
	c0.776-0.458,1.527-0.941,1.954-1.782c0.675-0.116,1.146-0.473,1.352-1.144c0.33-0.206,0.659-0.411,0.988-0.618
	c0-0.001-0.142,0.074-0.142,0.074c0.998-0.705,1.996-1.41,2.993-2.115c0,0-0.204-0.028-0.204-0.028
	c0.241-0.204,0.483-0.408,0.724-0.614c0-0.002-0.058,0.184-0.058,0.184c1.511-1.398,3.377-2.379,4.699-4.001
	c0.692-0.105,1.189-0.458,1.428-1.135c0.666-0.054,1.093-0.432,1.372-1.01c0.662-0.09,1.138-0.413,1.348-1.072
	c0.675-0.052,1.112-0.435,1.411-1.01c0.659-0.109,1.22-0.347,1.408-1.074c0.635-0.058,1.057-0.417,1.352-0.955
	c0.681-0.085,1.183-0.408,1.426-1.075c0.935-0.124,1.517-0.841,2.237-1.33c0-0.001-0.155,0.13-0.155,0.13
	c0.441-0.403,0.881-0.805,1.321-1.207c0.76-0.087,1.332-0.443,1.654-1.156l0.27,0.037c0,0,0.086-0.257,0.086-0.257
	c0.733-0.104,1.327-0.405,1.601-1.15c0.874-0.133,1.479-0.732,2.142-1.232c0.001-0.001-0.157,0.11-0.157,0.11
	c0.736-0.495,1.472-0.99,2.208-1.486c0-0.001-0.15,0.143-0.15,0.143c0.742-0.508,1.482-1.015,2.224-1.523
	c0.001-0.002-0.151,0.137-0.151,0.137c0.76-0.5,1.52-0.999,2.282-1.498c0.002,0-0.162-0.019-0.162-0.019
	c0.74-0.457,1.479-0.913,2.222-1.368c0.003,0.001-0.145-0.015-0.145-0.015c0.777-0.47,1.555-0.939,2.333-1.409
	c0-0.001-0.171-0.018-0.171-0.018c0.256,0.038,0.395-0.072,0.417-0.331c0.69-0.078,1.253-0.351,1.556-1.02
	c0.519-0.218,1.036-0.435,1.556-0.653c0.002,0-0.173-0.026-0.173-0.026c0.781-0.47,1.561-0.941,2.34-1.412
	c-0.088,0.032-0.144,0.027-0.169-0.014c0.254,0.05,0.39-0.055,0.41-0.312c0.704-0.073,1.272-0.359,1.604-1.018
	c0.637-0.018,1.127-0.36,1.608-0.722c0,0-0.171-0.017-0.171-0.017c0.25,0.046,0.386-0.057,0.408-0.31
	c0.712-0.067,1.287-0.356,1.634-1.013c0.622-0.017,1.103-0.333,1.55-0.725c-0.085,0.025-0.139,0.019-0.164-0.021
	c0.499-0.211,0.998-0.423,1.498-0.634c0,0-0.181-0.035-0.181-0.035c0.163-0.143,0.325-0.287,0.488-0.429
	c0.782-0.043,1.41-0.352,1.806-1.056c0.464-0.195,0.927-0.391,1.39-0.586c0,0-0.165-0.02-0.165-0.02
	c0.488-0.213,0.975-0.427,1.466-0.64c0.003,0.001-0.148-0.019-0.148-0.019c0.263-0.001,0.425-0.13,0.485-0.386
	c1.225-0.302,2.323-0.83,3.169-1.799c0.469-0.197,0.939-0.395,1.408-0.592c-0.091,0.041-0.144,0.035-0.162-0.019
	c0.501-0.211,1.003-0.422,1.507-0.633c0.002,0-0.154-0.027-0.154-0.027c0.49-0.22,0.979-0.439,1.471-0.659
	c0.003,0.001-0.146-0.019-0.146-0.019c0.523-0.225,1.047-0.45,1.572-0.675c0,0-0.183-0.037-0.183-0.037
	c0.263-0.009,0.426-0.141,0.487-0.396c4.995-2.231,9.92-4.604,14.676-7.313c0.548-0.188,1.097-0.375,1.645-0.563
	c0,0-0.167-0.021-0.167-0.021c0.519-0.227,1.038-0.453,1.555-0.679c-0.001,0-0.116,0.04-0.116,0.04l-0.036-0.065
	c0.514-0.224,1.029-0.446,1.542-0.67c-0.002,0-0.138,0.031-0.138,0.031l0.025-0.064c0.444-0.001,0.805-0.175,1.082-0.521
	c0.839-0.01,1.599-0.205,2.122-0.935c0.577-0.191,1.154-0.383,1.731-0.575c-0.079,0.014-0.134,0.008-0.166-0.018
	c0.381-0.202,0.764-0.404,1.145-0.606c1.37-0.131,2.545-0.711,3.603-1.561c0.488,0.008,0.897-0.168,1.228-0.526
	c0.84,0.038,1.592-0.142,2.131-0.855c0.582-0.191,1.164-0.382,1.745-0.574c-0.001,0-0.155,0.011-0.155,0.011l0.024-0.046
	c0.36-0.164,0.721-0.329,1.081-0.493c0.918,0.005,1.73-0.252,2.362-0.956c0.436,0.045,0.798-0.096,1.088-0.424
	c1.58-0.198,3.038-0.718,4.335-1.656c0.472,0.036,0.867-0.121,1.185-0.471c1.58-0.177,3.039-0.685,4.35-1.598
	c0.522,0.02,0.979-0.144,1.369-0.491c0.257,0.182,0.479,0.258,0.528-0.179c0.514,0.018,0.961-0.145,1.343-0.489
	c5.241-1.398,10.385-3.093,15.445-5.047c0.455,0.064,0.858-0.051,1.209-0.348c5.721-1.496,11.425-3.067,17.17-4.468
	c7.077-1.727,14.189-3.312,21.287-4.958c0.585,0.152,1.125,0.078,1.597-0.326c5.846-0.87,11.7-1.695,17.537-2.627
	c3.925-0.627,7.929-0.702,11.795-1.716c0.804,0.22,1.577,0.133,2.323-0.228c1.557,0.182,3.088,0.1,4.57-0.464
	c1.03,0.235,2.038,0.161,3.021-0.229c1.998,0.17,3.974,0.062,5.917-0.469c1.241,0.253,2.465,0.19,3.672-0.197
	c1.831,0.351,3.661,0.019,5.482-0.067c22.061-1.04,44.04-0.081,65.953,2.592c0.788,0.096,1.588,0.086,2.383,0.125
	c0.451,0.302,0.932,0.357,1.441,0.171c4.269,0.731,8.527,1.538,12.812,2.168c3.493,0.514,6.901,1.55,10.454,1.673
	c0.463,0.393,0.991,0.463,1.562,0.313c0.816,0.48,1.682,0.734,2.637,0.572c0.37,0.07,0.741,0.139,1.109,0.208
	c1.353,0.742,2.814,0.982,4.337,0.944c0.456,0.418,0.988,0.5,1.571,0.362c1.273,0.684,2.631,0.998,4.076,0.937
	c0.407,0.427,0.902,0.523,1.458,0.389c0.375,0.373,0.799,0.511,1.304,0.281c0.408,0.422,0.903,0.53,1.462,0.397
	c1.271,0.657,2.61,1.044,4.054,1.008c0.505,0.488,1.115,0.604,1.785,0.506c0.905,0.674,1.928,0.908,3.041,0.801
	c0.401,0.435,0.896,0.562,1.464,0.446c0.366,0.379,0.79,0.531,1.303,0.331c0.466,0.49,1.045,0.604,1.688,0.508
	c1.621,0.898,3.352,1.426,5.207,1.533c0.473,0.502,1.077,0.62,1.732,0.588c0.001-0.001,0.051,0.029,0.051,0.029l-0.17,0.006
	c0.688,0.402,1.425,0.635,2.227,0.655c0.001,0-0.006,0.059-0.006,0.059l-0.138-0.032c0.709,0.373,1.447,0.64,2.265,0.601
	c0.173,0.357,0.419,0.486,0.782,0.248c0.372,0.323,0.803,0.466,1.293,0.431c0.869,0.734,1.905,0.963,3.007,0.991
	c0.375,0.159,0.75,0.318,1.126,0.477c0.001,0-0.165,0.02-0.165,0.02c0.729,0.219,1.457,0.438,2.187,0.657
	c0.001,0,0.001,0.052,0.001,0.052l-0.142-0.021c0.658,0.378,1.345,0.654,2.124,0.606c1.377,0.91,2.898,1.417,4.528,1.626
	c0.305,0.331,0.682,0.475,1.128,0.434c0.156,0.41,0.416,0.56,0.826,0.324c0.287,0.307,0.638,0.436,1.054,0.388
	c0.681,0.728,1.559,0.947,2.512,0.974c0.282,0.311,0.631,0.44,1.048,0.386c0.65,0.695,1.468,0.965,2.4,0.947
	c0.274,0.329,0.625,0.473,1.051,0.434c0.644,0.707,1.466,0.979,2.399,0.984c0.26,0.315,0.593,0.449,0.998,0.403
	c0.66,0.718,1.516,0.961,2.452,1.011c0.266,0.309,0.602,0.446,1.007,0.413c0,0,0.076,0.166,0.076,0.166l-0.048-0.143
	c0.399,0.379,0.874,0.583,1.422,0.611c1.097,0.896,2.337,1.466,3.752,1.639c0.281,0.335,0.64,0.5,1.079,0.497
	c0,0,0.025,0.058,0.025,0.058l-0.146-0.024c0.521,0.195,1.041,0.389,1.562,0.583c1.068,0.918,2.305,1.476,3.69,1.714
	c0.233,0.312,0.544,0.451,0.932,0.416c0,0,0.077,0.253,0.077,0.253l0.163-0.148c0.332,0.372,0.747,0.569,1.245,0.592
	c0,0,0.063,0.127,0.063,0.127l-0.086-0.11c0.486,0.227,0.972,0.454,1.458,0.681c0.001,0,0.015,0.062,0.015,0.062l-0.141-0.029
	c0.517,0.222,1.034,0.445,1.552,0.667c0,0-0.046,0.059-0.046,0.059l-0.11-0.035c0.517,0.223,1.034,0.446,1.551,0.669
	c-0.021,0.041-0.075,0.047-0.161,0.021c0.514,0.224,1.027,0.447,1.542,0.671c0.001,0-0.162,0.02-0.162,0.02
	c0.515,0.225,1.03,0.45,1.546,0.674c0,0-0.167,0.021-0.167,0.021c0.516,0.224,1.032,0.448,1.548,0.672
	c0-0.001-0.167,0.021-0.167,0.021c0.518,0.225,1.035,0.451,1.553,0.675c0,0-0.168,0.024-0.168,0.024
	c0.517,0.223,1.033,0.445,1.549,0.666c0,0-0.168,0.024-0.168,0.024c0.514,0.218,1.029,0.437,1.543,0.655
	c0.001,0-0.163,0.021-0.163,0.021c0.502,0.22,1.004,0.44,1.506,0.66c0,0-0.026,0.07-0.026,0.07l-0.119-0.042
	c0.498,0.218,0.997,0.437,1.495,0.654l0.017,0.071l-0.124-0.043c0.874,0.692,1.783,1.311,2.933,1.44
	c0.808,0.929,1.864,1.409,3.034,1.684c0.034,0.248,0.175,0.362,0.423,0.34c0-0.001-0.159,0.022-0.159,0.022
	c0.505,0.212,1.009,0.425,1.513,0.637l-0.044,0.065l-0.106-0.039c0.449,0.2,0.897,0.4,1.346,0.601
	c0.881,0.962,1.989,1.527,3.237,1.85l0.118,0.259c0,0,0.284,0.026,0.285,0.026c-0.022,0.04-0.079,0.045-0.169,0.016
	c0.48,0.379,0.98,0.714,1.623,0.731c0.328,0.659,0.898,0.927,1.596,0.988c0.043,0.255,0.194,0.382,0.452,0.377
	c-0.002-0.001-0.141,0.012-0.141,0.012c0.48,0.21,0.959,0.419,1.439,0.628c0,0,0,0.07,0,0.07l-0.121-0.043
	c0.77,0.476,1.541,0.951,2.31,1.425c-0.001-0.001-0.171,0.006-0.171,0.006c1.2,0.684,2.4,1.367,3.598,2.049
	c-0.001-0.001-0.141,0.016-0.141,0.016c0.5,0.229,1,0.458,1.5,0.687c0.341,0.658,0.9,0.975,1.619,1.045l0.105,0.261
	c0,0,0.281,0.004,0.282,0.004c0,0-0.026,0.062-0.026,0.062l-0.127-0.031c0.768,0.468,1.537,0.937,2.304,1.404
	c-0.001-0.001-0.145,0.02-0.145,0.02c0.746,0.459,1.492,0.919,2.237,1.378c-0.001-0.001-0.161,0.01-0.161,0.01
	c0.746,0.46,1.491,0.92,2.236,1.378c0-0.002-0.174,0-0.174,0c0.747,0.494,1.494,0.987,2.243,1.482
	c0.001,0.001-0.071-0.161-0.071-0.161c0.4,0.387,0.841,0.694,1.42,0.733c0.322,0.667,0.862,1.02,1.589,1.107
	c0.253,0.501,0.683,0.786,1.193,0.967c-0.001-0.001-0.149,0.013-0.149,0.013c0.734,0.447,1.468,0.894,2.202,1.341
	c0-0.001-0.157,0.026-0.157,0.026c0.718,0.533,1.345,1.223,2.3,1.35c0.264,0.67,0.781,0.993,1.474,1.077
	c0.419,0.382,0.838,0.764,1.258,1.146c0.001,0-0.069-0.153-0.069-0.153c0.611,0.62,1.215,1.248,2.136,1.39
	c0.285,0.687,0.809,1.054,1.538,1.146c0.21,0.485,0.57,0.761,1.104,0.794c0.309,0.74,0.878,1.134,1.66,1.242
	c0.232,0.568,0.636,0.906,1.265,0.941c0.262,0.687,0.766,1.068,1.487,1.173c0.398,0.837,1.247,1.18,1.905,1.734
	c0.001,0-0.076-0.151-0.076-0.151c0.903,0.788,1.719,1.7,2.923,2.062c0.251,0.684,0.747,1.064,1.458,1.176
	c0.437,0.812,1.076,1.369,1.987,1.585c0.25,0.686,0.743,1.076,1.46,1.188c0.677,1.04,1.58,1.802,2.748,2.239
	c0.221,0.682,0.694,1.071,1.396,1.192c0.391,0.804,1.034,1.314,1.865,1.606c-0.039,0.034-0.092,0.041-0.158,0.02
	c0.333,0.214,0.666,0.429,0.998,0.643c0.234,0.688,0.712,1.091,1.426,1.218c1.378,1.7,2.977,3.148,4.856,4.277
	c0.202,0.685,0.666,1.082,1.357,1.225c1.84,2.142,3.842,4.105,6.2,5.683c0.644,1.166,1.577,2.026,2.765,2.618
	c3.729,4.161,7.678,8.102,11.833,11.837c0.591,1.192,1.461,2.12,2.621,2.774c1.586,2.344,3.522,4.368,5.678,6.189
	c0.35,0.961,0.977,1.674,1.901,2.12c0.891,1.635,2.11,2.981,3.596,4.094c0.134,0.715,0.532,1.204,1.229,1.438
	c0.429,1.166,1.2,2.046,2.249,2.694c0.135,0.701,0.521,1.186,1.213,1.407c0.423,1.168,1.177,2.068,2.218,2.735
	c0.113,0.729,0.506,1.229,1.205,1.482c0.211,0.904,0.752,1.544,1.569,1.964c0.118,0.718,0.503,1.22,1.195,1.472
	c0.051,0.652,0.422,1.064,0.998,1.32c0.083,0.682,0.427,1.159,1.092,1.381c0.198,0.918,0.724,1.589,1.545,2.035
	c0.11,0.725,0.487,1.241,1.182,1.508c0.026,0.622,0.354,1.02,0.917,1.244c0.099,0.723,0.463,1.244,1.151,1.521
	c0.458,1.359,1.314,2.436,2.396,3.349c0.085,0.68,0.409,1.179,1.075,1.421c0.025,0.651,0.378,1.071,0.945,1.34
	c0.082,0.707,0.417,1.231,1.092,1.509c0.115,0.187,0.23,0.373,0.345,0.56c0.071,0.689,0.381,1.207,1.051,1.467
	c2.622,4.517,5.528,8.844,8.663,13.019c0.049,0.683,0.327,1.217,0.983,1.503c0.104,0.189,0.208,0.378,0.312,0.567
	c0.061,0.719,0.373,1.275,1.034,1.607c0.046,0.81,0.47,1.392,1.113,1.841c0.056,0.684,0.332,1.227,0.981,1.529
	c0.032,0.835,0.466,1.438,1.109,1.921c0.04,0.687,0.301,1.236,0.955,1.544c0.023,0.831,0.447,1.431,1.092,1.905
	c0.044,0.695,0.318,1.248,0.971,1.566c0.004,0.818,0.415,1.411,1.044,1.884c0.254,1.174,0.763,2.204,1.704,2.986
	c0.22,1.274,0.882,2.307,1.76,3.223c0.727,2.062,1.67,4.005,3.085,5.693c2.213,5.137,4.713,10.132,7.465,15.001
	c0.554,2.176,1.479,4.18,2.801,5.998c-0.064,0.659,0.118,1.211,0.693,1.591c0.281,1.724,0.982,3.262,2.051,4.636
	c-0.088,0.653,0.108,1.186,0.657,1.572c1.304,4.179,2.926,8.229,4.922,12.127c-0.089,0.668,0.064,1.245,0.623,1.671
	c-0.094,0.746,0.093,1.381,0.72,1.845c-0.119,0.645,0.069,1.18,0.572,1.603c0.665,2.788,1.493,5.516,2.899,8.036
	c0.098,1.592,0.584,3.055,1.461,4.387c0.598,3.323,1.702,6.488,2.995,9.594c-0.113,0.567,0.011,1.059,0.463,1.444
	c0.385,2.846,1.226,5.562,2.31,8.211c-0.126,0.562-0.015,1.054,0.431,1.446c0.924,5.113,2.203,10.139,3.724,15.105
	c-0.15,0.548-0.065,1.04,0.356,1.447c-0.238,0.732-0.059,1.385,0.383,1.987c-0.149,0.556-0.053,1.051,0.365,1.466
	c-0.25,0.502-0.124,0.933,0.248,1.317c-0.153,0.541-0.078,1.029,0.334,1.438c-0.248,0.737-0.056,1.394,0.37,2.006
	c-0.163,0.539-0.092,1.026,0.31,1.443c-0.264,0.739-0.068,1.396,0.357,2.014c-0.173,0.774-0.09,1.497,0.435,2.128
	c-0.251,0.721-0.111,1.379,0.318,1.992c-0.168,0.538-0.107,1.029,0.29,1.455c-0.236,0.95-0.052,1.837,0.407,2.682
	c-0.169,0.538-0.106,1.03,0.286,1.457c-0.252,0.952-0.058,1.837,0.398,2.684c-0.177,0.535-0.117,1.025,0.27,1.455
	c-0.239,1.173-0.027,2.287,0.44,3.368c-0.2,0.77-0.146,1.499,0.353,2.154c-0.259,0.938-0.125,1.827,0.327,2.679
	c-0.202,0.764-0.154,1.49,0.329,2.149c-0.267,1.165-0.115,2.286,0.349,3.374c-0.209,0.757-0.185,1.481,0.292,2.145
	c-0.261,1.394-0.05,2.74,0.409,4.061c-0.225,0.98-0.215,1.936,0.298,2.838c-0.263,1.616-0.092,3.197,0.384,4.754
	C810.129,385.116,810.375,386.285,810.542,387.457z M595.621,461.801c14.718,0,29.435,0,44.152,0c28.4,0,56.8,0.003,85.2-0.004
	c3.007-0.001,3.008-0.026,3.041-2.968c0.005-0.459,0.001-0.919,0.001-1.379c0-25.985,0.013-51.971-0.013-77.957
	c-0.004-4.516,0.819-4.132-4.278-4.133c-85.085-0.006-170.17-0.001-255.254-0.011c-5.123,0-4.413,0.57-4.413-4.36
	c-0.013-85.085-0.01-170.17-0.01-255.255c0-0.919-0.037-1.841,0.002-2.759c0.044-1.001-0.333-1.5-1.388-1.443
	c-0.803,0.043-1.609,0.007-2.414,0.007c-25.986,0-51.971,0-77.956,0c-4.607,0-4.607,0-4.607,4.45c0,85.084,0,170.169,0,255.254
	c0,4.113-0.001,4.113-4.23,4.113c-82.9,0-165.801,0-248.701,0c-1.035,0-2.07,0.027-3.104-0.002
	c-0.995-0.028-1.499,0.381-1.468,1.412c0.024,0.805-0.001,1.61-0.001,2.415c0,26.215-0.007,52.431,0.006,78.646
	c0.002,4.668-0.451,3.964,4.074,3.965c83.015,0.013,166.031,0.009,249.046,0.009c4.379,0,4.379,0.001,4.379,4.307
	c0,83.13-0.003,166.26,0.01,249.391c0,4.312-0.692,3.865,3.791,3.867c26.216,0.014,52.431,0.007,78.646,0.007
	c3.915,0,3.916-0.002,3.916-4.061c0-82.9,0-165.8,0-248.701c0-0.805,0.074-1.618-0.015-2.413c-0.192-1.715,0.337-2.637,2.239-2.411
	c0.793,0.094,1.608,0.015,2.413,0.015C510.996,461.801,553.309,461.801,595.621,461.801z"/>
</svg>
