<svg xmlns="http://www.w3.org/2000/svg" width="15.68" height="21.916" viewBox="0 0 15.68 21.916"><defs><style>.a{fill:#50e6d7;}</style></defs><path class="a" d="M9.34,3.659V1.1H10.55a.548.548,0,1,0,0-1.1H-4.034a.548.548,0,0,0-.548.548.548.548,0,0,0,.548.548h1.211V3.659A5.845,5.845,0,0,0-1.046,7.826l3.5,3.388-3.35,3.152A5.813,5.813,0,0,0-2.714,18.6V20.82h-1.32a.548.548,0,0,0-.548.548.548.548,0,0,0,.548.548H10.55a.548.548,0,1,0,0-1.1H9.395V18.639A5.819,5.819,0,0,0,7.5,14.356L4.059,11.209l3.5-3.383A5.844,5.844,0,0,0,9.34,3.659ZM8.3,18.639V20.82H-1.618V18.6A4.717,4.717,0,0,1-.139,15.166l3.405-3.2,3.5,3.2A4.72,4.72,0,0,1,8.3,18.639ZM3.258,10.458-.283,7.039A4.745,4.745,0,0,1-1.728,3.659V1.1H8.244V3.659A4.745,4.745,0,0,1,6.8,7.039Zm0,0" transform="translate(4.582)"/></svg>